<svg xmlns="http://www.w3.org/2000/svg" width="30" height="30" viewBox="0 0 30 30" fill="none">
  <path d="M18.0417 5.19736L19.2811 3.39498C19.3341 3.31823 19.3146 3.21181 19.2379 3.15874L19.207 3.13746C19.1303 3.08409 19.0244 3.10388 18.9714 3.18063L17.6963 5.03487C16.8635 4.67272 15.9344 4.47035 14.9541 4.47035C14.0238 4.47035 13.1391 4.65263 12.3399 4.98091L11.1215 3.20911C11.0687 3.13236 10.9626 3.11287 10.8859 3.16594L10.855 3.18722C10.7782 3.24029 10.7587 3.34671 10.8115 3.42376L11.9897 5.1365C10.1373 6.0242 8.80617 7.71685 8.53516 9.7156H21.3731C21.1083 7.76152 19.83 6.09975 18.0417 5.19736ZM12.2508 7.77921C11.8977 7.77921 11.6111 7.4917 11.6111 7.13734C11.6111 6.78298 11.8977 6.49578 12.2508 6.49578C12.6043 6.49578 12.8906 6.78298 12.8906 7.13734C12.8906 7.4917 12.6043 7.77921 12.2508 7.77921ZM17.7731 7.77921C17.4199 7.77921 17.1333 7.4917 17.1333 7.13734C17.1333 6.78298 17.4199 6.49578 17.7731 6.49578C18.1266 6.49578 18.4129 6.78298 18.4129 7.13734C18.4129 7.4917 18.1266 7.77921 17.7731 7.77921Z" fill="#1D1F29"/>
  <path d="M7.64467 12.2868V17.5441C7.64467 18.4453 7.07056 19.1828 6.36844 19.1828H6.08483C5.383 19.1828 4.80859 18.4453 4.80859 17.5441V12.2868C4.80859 11.3856 5.383 10.6484 6.08483 10.6484H6.36844C7.07056 10.6484 7.64467 11.3856 7.64467 12.2868Z" fill="#1D1F29"/>
  <path d="M25.1955 12.3181V17.5753C25.1955 18.4768 24.6213 19.214 23.9192 19.214H23.6356C22.9338 19.214 22.3594 18.4768 22.3594 17.5753V12.3181C22.3594 11.4169 22.9338 10.6797 23.6356 10.6797H23.9192C24.6213 10.6797 25.1955 11.4169 25.1955 12.3181Z" fill="#1D1F29"/>
  <path d="M21.4705 10.5703V20.9436C21.4705 21.6637 20.8832 22.2528 20.1652 22.2528H19.0886V25.2505C19.0886 26.1516 18.5142 26.8888 17.8124 26.8888H17.5288C16.8269 26.8888 16.2525 26.1516 16.2525 25.2505V22.2528H13.8542V25.216C13.8542 26.1172 13.28 26.8547 12.5779 26.8547H12.2943C11.5925 26.8547 11.0181 26.1172 11.0181 25.216V22.2528H9.84438C9.12636 22.2528 8.53906 21.6637 8.53906 20.9436V10.5703H21.4705Z" fill="#1D1F29"/>
</svg>