<svg xmlns="http://www.w3.org/2000/svg" width="20" height="20" viewBox="0 0 20 20" fill="none">
  <path fill-rule="evenodd" clip-rule="evenodd" d="M16.0104 5.05154C16.3033 4.75864 16.3033 4.28377 16.0104 3.99088C15.7175 3.69798 15.2426 3.69798 14.9497 3.99088L10 8.94062L5.05025 3.99088C4.75736 3.69798 4.28249 3.69798 3.98959 3.99088C3.6967 4.28377 3.6967 4.75864 3.98959 5.05154L8.93934 10.0013L3.98959 14.951C3.6967 15.2439 3.6967 15.7188 3.98959 16.0117C4.28249 16.3046 4.75736 16.3046 5.05025 16.0117L10 11.0619L14.9497 16.0117C15.2426 16.3046 15.7175 16.3046 16.0104 16.0117C16.3033 15.7188 16.3033 15.2439 16.0104 14.951L11.0607 10.0013L16.0104 5.05154Z" fill="#1D1F29"/>
</svg>