<svg width="140" height="44" viewBox="0 0 140 44" fill="none" xmlns="http://www.w3.org/2000/svg">
<rect x="0.5" y="0.5" width="139" height="43" rx="7.5" stroke="#E5E6EB"/>
<path d="M36.8984 22.6952C36.8867 20.6972 37.792 19.1913 39.6201 18.081C38.5977 16.6161 37.0508 15.8105 35.0117 15.6552C33.0811 15.5029 30.9687 16.7802 30.1953 16.7802C29.3779 16.7802 27.5088 15.7079 26.0381 15.7079C23.0029 15.7548 19.7773 18.1279 19.7773 22.956C19.7773 24.3827 20.0381 25.8564 20.5596 27.3739C21.2568 29.372 23.7705 34.2675 26.3926 34.1884C27.7637 34.1562 28.7334 33.2157 30.5176 33.2157C32.249 33.2157 33.1455 34.1884 34.6748 34.1884C37.3203 34.1503 39.5938 29.7001 40.2559 27.6962C36.708 26.0234 36.8984 22.7978 36.8984 22.6952Z" fill="#1D1F29"/>
<path d="M33.8228 13.7588C35.3081 11.9951 35.1734 10.3896 35.1294 9.8125C33.8169 9.88867 32.2993 10.7061 31.4351 11.7109C30.4829 12.7891 29.9234 14.1221 30.0435 15.625C31.4614 15.7334 32.7564 15.0039 33.8228 13.7588Z" fill="#1D1F29"/>
<path d="M58.338 31.972C58.338 31.9813 58.338 31.9907 58.338 32C58.338 32 58.3333 32 58.324 32H56.392C56.3827 32 56.3733 32 56.364 32C56.3547 31.9907 56.35 31.9813 56.35 31.972L53.256 23.446H54.04L50.946 31.972C50.946 31.9813 50.9413 31.9907 50.932 32C50.932 32 50.9227 32 50.904 32H48.972C48.9627 31.9907 48.958 31.9813 48.958 31.972L52.71 21.654C52.71 21.6353 52.724 21.626 52.752 21.626H54.544C54.572 21.626 54.586 21.6353 54.586 21.654L58.338 31.972ZM55.958 27.52V29.34H51.338V27.52H55.958ZM62.9449 26.036C62.5062 26.036 62.1235 26.1293 61.7969 26.316C61.4702 26.5027 61.2182 26.7687 61.0409 27.114C60.8635 27.45 60.7749 27.842 60.7749 28.29C60.7749 28.738 60.8635 29.1347 61.0409 29.48C61.2182 29.8253 61.4702 30.0913 61.7969 30.278C62.1235 30.4647 62.5062 30.558 62.9449 30.558C63.2902 30.558 63.6075 30.4647 63.8969 30.278C64.1955 30.082 64.4289 29.8113 64.5969 29.466C64.7649 29.1207 64.8489 28.7287 64.8489 28.29C64.8489 27.8513 64.7649 27.464 64.5969 27.128C64.4289 26.7827 64.2002 26.5167 63.9109 26.33C63.6215 26.134 63.2995 26.036 62.9449 26.036ZM63.0849 24.426C63.7849 24.426 64.4149 24.5987 64.9749 24.944C65.5349 25.2893 65.9735 25.7607 66.2909 26.358C66.6082 26.946 66.7669 27.59 66.7669 28.29C66.7669 28.99 66.6082 29.6387 66.2909 30.236C65.9735 30.824 65.5349 31.2907 64.9749 31.636C64.4149 31.9813 63.7849 32.154 63.0849 32.154C62.3942 32.154 61.8015 31.958 61.3069 31.566C60.8215 31.1647 60.4575 30.6653 60.2149 30.068C59.9722 29.4707 59.8509 28.878 59.8509 28.29C59.8509 27.702 59.9722 27.1093 60.2149 26.512C60.4575 25.9147 60.8215 25.42 61.3069 25.028C61.8015 24.6267 62.3942 24.426 63.0849 24.426ZM60.9289 35.164C60.9289 35.1733 60.9242 35.178 60.9149 35.178C60.9149 35.1873 60.9102 35.192 60.9009 35.192H59.1649C59.1555 35.192 59.1462 35.1873 59.1369 35.178C59.1369 35.178 59.1369 35.1733 59.1369 35.164V24.608C59.1369 24.5987 59.1369 24.594 59.1369 24.594C59.1462 24.5847 59.1555 24.58 59.1649 24.58H60.9009C60.9102 24.58 60.9149 24.5847 60.9149 24.594C60.9242 24.594 60.9289 24.5987 60.9289 24.608V26.974L60.5369 28.234L60.9289 29.564V35.164ZM72.0367 26.036C71.598 26.036 71.2153 26.1293 70.8887 26.316C70.562 26.5027 70.31 26.7687 70.1327 27.114C69.9553 27.45 69.8667 27.842 69.8667 28.29C69.8667 28.738 69.9553 29.1347 70.1327 29.48C70.31 29.8253 70.562 30.0913 70.8887 30.278C71.2153 30.4647 71.598 30.558 72.0367 30.558C72.382 30.558 72.6993 30.4647 72.9887 30.278C73.2873 30.082 73.5207 29.8113 73.6887 29.466C73.8567 29.1207 73.9407 28.7287 73.9407 28.29C73.9407 27.8513 73.8567 27.464 73.6887 27.128C73.5207 26.7827 73.292 26.5167 73.0027 26.33C72.7133 26.134 72.3913 26.036 72.0367 26.036ZM72.1767 24.426C72.8767 24.426 73.5067 24.5987 74.0667 24.944C74.6267 25.2893 75.0653 25.7607 75.3827 26.358C75.7 26.946 75.8587 27.59 75.8587 28.29C75.8587 28.99 75.7 29.6387 75.3827 30.236C75.0653 30.824 74.6267 31.2907 74.0667 31.636C73.5067 31.9813 72.8767 32.154 72.1767 32.154C71.486 32.154 70.8933 31.958 70.3987 31.566C69.9133 31.1647 69.5493 30.6653 69.3067 30.068C69.064 29.4707 68.9427 28.878 68.9427 28.29C68.9427 27.702 69.064 27.1093 69.3067 26.512C69.5493 25.9147 69.9133 25.42 70.3987 25.028C70.8933 24.6267 71.486 24.426 72.1767 24.426ZM70.0207 35.164C70.0207 35.1733 70.016 35.178 70.0067 35.178C70.0067 35.1873 70.002 35.192 69.9927 35.192H68.2567C68.2473 35.192 68.238 35.1873 68.2287 35.178C68.2287 35.178 68.2287 35.1733 68.2287 35.164V24.608C68.2287 24.5987 68.2287 24.594 68.2287 24.594C68.238 24.5847 68.2473 24.58 68.2567 24.58H69.9927C70.002 24.58 70.0067 24.5847 70.0067 24.594C70.016 24.594 70.0207 24.5987 70.0207 24.608V26.974L69.6287 28.234L70.0207 29.564V35.164ZM81.6863 29.088C81.6863 29.0787 81.6863 29.074 81.6863 29.074C81.6956 29.0647 81.7049 29.06 81.7143 29.06L83.5203 28.808C83.5296 28.808 83.5343 28.8127 83.5343 28.822C83.5436 28.822 83.5483 28.8267 83.5483 28.836C83.6323 29.3867 83.9169 29.8113 84.4023 30.11C84.8876 30.4087 85.4196 30.5207 85.9983 30.446C86.5769 30.362 87.0249 30.0867 87.3423 29.62C87.5103 29.368 87.5989 29.116 87.6083 28.864C87.6176 28.6027 87.5429 28.3693 87.3843 28.164C87.2349 27.9587 87.0203 27.8047 86.7403 27.702C86.5256 27.6273 86.1149 27.548 85.5083 27.464C85.3869 27.4547 85.0603 27.408 84.5283 27.324C83.8469 27.2027 83.2916 26.8667 82.8623 26.316C82.4329 25.756 82.2183 25.1213 82.2183 24.412C82.2183 23.7027 82.4609 23.082 82.9463 22.55C83.4783 21.9527 84.1643 21.598 85.0043 21.486C85.8536 21.374 86.6609 21.5233 87.4263 21.934C88.2009 22.3447 88.7609 22.984 89.1063 23.852C89.1156 23.8613 89.1156 23.8707 89.1063 23.88C89.1063 23.88 89.1016 23.8847 89.0923 23.894L87.4123 24.538C87.4029 24.5473 87.3936 24.552 87.3843 24.552C87.3843 24.5427 87.3796 24.5333 87.3703 24.524C87.1743 24.0293 86.8896 23.67 86.5163 23.446C86.1523 23.2127 85.7696 23.1287 85.3683 23.194C84.9763 23.25 84.6356 23.4367 84.3463 23.754C84.1409 23.978 84.0383 24.23 84.0383 24.51C84.0383 24.7807 84.1269 25.028 84.3043 25.252C84.4816 25.4667 84.7149 25.6113 85.0043 25.686C85.1069 25.714 85.2423 25.742 85.4103 25.77C85.5783 25.7887 85.7463 25.8073 85.9143 25.826C86.5676 25.882 87.0623 25.9707 87.3983 26.092C88.1076 26.3533 88.6396 26.736 88.9943 27.24C89.3583 27.744 89.5309 28.304 89.5123 28.92C89.5029 29.5267 89.3069 30.1053 88.9243 30.656C88.3549 31.4867 87.5149 31.9673 86.4043 32.098C85.3029 32.238 84.2763 32.028 83.3243 31.468C82.3816 30.908 81.8356 30.1147 81.6863 29.088ZM95.504 30.264C95.5133 30.264 95.518 30.2687 95.518 30.278C95.5273 30.278 95.532 30.2827 95.532 30.292V31.972C95.532 31.9813 95.5273 31.9907 95.518 32C95.518 32 95.5133 32 95.504 32C94.2346 31.9907 93.3013 31.7387 92.704 31.244C92.1066 30.74 91.808 29.998 91.808 29.018V22.242C91.808 22.2327 91.808 22.228 91.808 22.228C91.8173 22.2187 91.8266 22.214 91.836 22.214H93.572C93.5813 22.214 93.586 22.2187 93.586 22.228C93.5953 22.228 93.6 22.2327 93.6 22.242V28.738C93.6 29.1393 93.6466 29.4473 93.74 29.662C93.8426 29.8767 94.0293 30.0307 94.3 30.124C94.5706 30.2173 94.972 30.264 95.504 30.264ZM95.504 24.58C95.5133 24.58 95.518 24.5847 95.518 24.594C95.5273 24.594 95.532 24.5987 95.532 24.608V26.218C95.532 26.2273 95.5273 26.2367 95.518 26.246C95.518 26.246 95.5133 26.246 95.504 26.246H90.45C90.4406 26.246 90.4313 26.246 90.422 26.246C90.422 26.2367 90.422 26.2273 90.422 26.218V24.608C90.422 24.5987 90.422 24.594 90.422 24.594C90.4313 24.5847 90.4406 24.58 90.45 24.58H95.504ZM100.21 30.502C100.621 30.502 100.98 30.4087 101.288 30.222C101.596 30.0353 101.83 29.774 101.988 29.438C102.156 29.102 102.24 28.7193 102.24 28.29C102.24 27.8513 102.156 27.4687 101.988 27.142C101.83 26.806 101.596 26.5447 101.288 26.358C100.98 26.1713 100.621 26.078 100.21 26.078C99.7998 26.078 99.4405 26.1713 99.1325 26.358C98.8245 26.5447 98.5865 26.806 98.4185 27.142C98.2598 27.4687 98.1805 27.8513 98.1805 28.29C98.1805 28.7193 98.2645 29.102 98.4325 29.438C98.6005 29.774 98.8338 30.0353 99.1325 30.222C99.4405 30.4087 99.7998 30.502 100.21 30.502ZM100.21 32.154C99.5105 32.154 98.8618 31.9813 98.2645 31.636C97.6765 31.2813 97.2098 30.81 96.8645 30.222C96.5191 29.6247 96.3465 28.9807 96.3465 28.29C96.3465 27.59 96.5191 26.946 96.8645 26.358C97.2191 25.7607 97.6905 25.2893 98.2785 24.944C98.8758 24.5987 99.5198 24.426 100.21 24.426C100.91 24.426 101.554 24.5987 102.142 24.944C102.74 25.2893 103.211 25.7607 103.556 26.358C103.902 26.946 104.074 27.59 104.074 28.29C104.074 28.9807 103.902 29.6247 103.556 30.222C103.211 30.81 102.74 31.2813 102.142 31.636C101.554 31.9813 100.91 32.154 100.21 32.154ZM107.318 31.972C107.318 31.9813 107.313 31.9907 107.304 32C107.304 32 107.299 32 107.29 32H105.554C105.544 32 105.535 32 105.526 32C105.526 31.9907 105.526 31.9813 105.526 31.972V24.608C105.526 24.5987 105.526 24.594 105.526 24.594C105.535 24.5847 105.544 24.58 105.554 24.58H107.29C107.299 24.58 107.304 24.5847 107.304 24.594C107.313 24.594 107.318 24.5987 107.318 24.608V31.972ZM105.526 29.704C105.526 28.7427 105.694 27.8607 106.03 27.058C106.366 26.2553 106.842 25.616 107.458 25.14C108.074 24.664 108.783 24.426 109.586 24.426C109.595 24.426 109.6 24.4307 109.6 24.44C109.609 24.44 109.614 24.4447 109.614 24.454V26.134C109.614 26.1433 109.609 26.1527 109.6 26.162C109.6 26.162 109.595 26.162 109.586 26.162C109.054 26.162 108.62 26.2367 108.284 26.386C107.957 26.526 107.714 26.764 107.556 27.1C107.397 27.4267 107.318 27.8747 107.318 28.444L105.526 29.704ZM117.879 28.724C117.879 28.7333 117.875 28.7427 117.865 28.752C117.865 28.752 117.861 28.752 117.851 28.752H116.241C116.241 28.1173 116.153 27.5993 115.975 27.198C115.807 26.7873 115.569 26.4933 115.261 26.316C114.963 26.1293 114.608 26.036 114.197 26.036C113.721 26.036 113.32 26.1247 112.993 26.302C112.676 26.47 112.433 26.722 112.265 27.058C112.097 27.394 112.013 27.8 112.013 28.276C112.013 28.7707 112.097 29.186 112.265 29.522C112.433 29.858 112.69 30.1147 113.035 30.292C113.381 30.46 113.815 30.544 114.337 30.544C114.692 30.544 115.023 30.4553 115.331 30.278C115.639 30.0913 115.919 29.8253 116.171 29.48C116.181 29.4707 116.185 29.466 116.185 29.466C116.195 29.466 116.204 29.466 116.213 29.466L117.585 30.404C117.595 30.4133 117.599 30.4227 117.599 30.432C117.599 30.432 117.599 30.4367 117.599 30.446C117.207 30.978 116.717 31.398 116.129 31.706C115.551 32.0047 114.953 32.154 114.337 32.154C113.525 32.154 112.816 31.986 112.209 31.65C111.603 31.314 111.131 30.852 110.795 30.264C110.469 29.676 110.305 29.0133 110.305 28.276C110.305 27.5387 110.469 26.8807 110.795 26.302C111.131 25.714 111.593 25.2567 112.181 24.93C112.779 24.594 113.451 24.426 114.197 24.426C114.869 24.426 115.485 24.5847 116.045 24.902C116.615 25.2193 117.067 25.7047 117.403 26.358C117.739 27.002 117.898 27.7907 117.879 28.724ZM117.011 28.752H111.467V27.296H117.011V28.752Z" fill="#1D1F29"/>
<path d="M49.539 17C49.5343 17 49.5297 17 49.525 17C49.525 16.9953 49.525 16.9907 49.525 16.986V11.827C49.525 11.8223 49.525 11.82 49.525 11.82C49.5297 11.8153 49.5343 11.813 49.539 11.813H50.463V17H49.539ZM50.022 16.09H51.268C51.6227 16.09 51.9167 16.02 52.15 15.88C52.388 15.74 52.563 15.544 52.675 15.292C52.7917 15.04 52.85 14.746 52.85 14.41C52.85 14.0647 52.794 13.766 52.682 13.514C52.57 13.262 52.395 13.0683 52.157 12.933C51.9237 12.793 51.6273 12.723 51.268 12.723H50.022V11.813H51.268C51.7953 11.813 52.248 11.932 52.626 12.17C53.0087 12.408 53.298 12.7253 53.494 13.122C53.69 13.5187 53.788 13.948 53.788 14.41C53.788 14.8627 53.69 15.2873 53.494 15.684C53.298 16.0807 53.0087 16.4003 52.626 16.643C52.248 16.881 51.7953 17 51.268 17H50.022V16.09ZM57.0748 16.188C57.4108 16.188 57.7071 16.1133 57.9638 15.964C58.2251 15.8147 58.4281 15.607 58.5728 15.341C58.7174 15.0703 58.7898 14.7623 58.7898 14.417C58.7898 14.0717 58.7174 13.7637 58.5728 13.493C58.4281 13.2223 58.2251 13.01 57.9638 12.856C57.7024 12.702 57.4061 12.625 57.0748 12.625C56.7434 12.625 56.4471 12.702 56.1858 12.856C55.9244 13.01 55.7214 13.2223 55.5768 13.493C55.4321 13.7637 55.3598 14.0717 55.3598 14.417C55.3598 14.7623 55.4321 15.0703 55.5768 15.341C55.7214 15.607 55.9221 15.8147 56.1788 15.964C56.4401 16.1133 56.7388 16.188 57.0748 16.188ZM57.0748 17.077C56.5894 17.077 56.1414 16.958 55.7308 16.72C55.3248 16.482 55.0004 16.16 54.7578 15.754C54.5198 15.348 54.4008 14.9023 54.4008 14.417C54.4008 13.9317 54.5198 13.4837 54.7578 13.073C55.0004 12.6623 55.3271 12.338 55.7378 12.1C56.1484 11.8573 56.5941 11.736 57.0748 11.736C57.5554 11.736 58.0011 11.8573 58.4118 12.1C58.8224 12.338 59.1468 12.6623 59.3848 13.073C59.6274 13.4837 59.7488 13.9317 59.7488 14.417C59.7488 14.9023 59.6274 15.348 59.3848 15.754C59.1468 16.16 58.8224 16.482 58.4118 16.72C58.0058 16.958 57.5601 17.077 57.0748 17.077ZM60.1237 11.827C60.1237 11.8223 60.1237 11.82 60.1237 11.82C60.1237 11.8153 60.126 11.813 60.1307 11.813H61.0687C61.0734 11.813 61.0757 11.8153 61.0757 11.82C61.0804 11.82 61.0827 11.8223 61.0827 11.827L61.8737 15.103L62.8047 11.827C62.8047 11.8177 62.8094 11.813 62.8187 11.813H63.6307C63.64 11.813 63.6447 11.8177 63.6447 11.827L64.6177 15.124L65.4087 11.827C65.4087 11.8177 65.4134 11.813 65.4227 11.813H66.3607C66.3654 11.813 66.3677 11.8153 66.3677 11.82C66.3677 11.82 66.3677 11.8223 66.3677 11.827L65.0797 16.986C65.0797 16.9953 65.075 17 65.0657 17H64.2677C64.2584 17 64.2537 16.9953 64.2537 16.986L63.2317 13.374L62.2377 16.986C62.2377 16.9953 62.233 17 62.2237 17H61.4257C61.4164 17 61.4117 16.9953 61.4117 16.986L60.1237 11.827ZM70.0015 11.827C70.0015 11.8223 70.0015 11.82 70.0015 11.82C70.0061 11.8153 70.0108 11.813 70.0155 11.813H70.9255C70.9301 11.813 70.9325 11.8153 70.9325 11.82C70.9371 11.82 70.9395 11.8223 70.9395 11.827V16.986C70.9395 16.9907 70.9371 16.9953 70.9325 17C70.9325 17 70.9301 17 70.9255 17H70.1205C70.1158 17 70.1111 17 70.1065 17C70.1018 17 70.0995 16.9977 70.0995 16.993L67.9015 13.521V16.986C67.9015 16.9907 67.8991 16.9953 67.8945 17C67.8945 17 67.8921 17 67.8875 17H66.9775C66.9728 17 66.9681 17 66.9635 17C66.9635 16.9953 66.9635 16.9907 66.9635 16.986V11.827C66.9635 11.8223 66.9635 11.82 66.9635 11.82C66.9681 11.8153 66.9728 11.813 66.9775 11.813H67.7825C67.7871 11.813 67.7918 11.813 67.7965 11.813C67.8011 11.813 67.8035 11.8153 67.8035 11.82L70.0015 15.292V11.827ZM72.0019 17C71.9972 17 71.9926 17 71.9879 17C71.9879 16.9953 71.9879 16.9907 71.9879 16.986V11.827C71.9879 11.8223 71.9879 11.82 71.9879 11.82C71.9926 11.8153 71.9972 11.813 72.0019 11.813H72.9119C72.9166 11.813 72.9189 11.8153 72.9189 11.82C72.9236 11.82 72.9259 11.8223 72.9259 11.827V17H72.0019ZM75.1029 16.09C75.1076 16.09 75.1099 16.0923 75.1099 16.097C75.1146 16.097 75.1169 16.0993 75.1169 16.104V16.986C75.1169 16.9907 75.1146 16.9953 75.1099 17C75.1099 17 75.1076 17 75.1029 17H72.5899V16.09H75.1029ZM77.8902 16.188C78.2262 16.188 78.5225 16.1133 78.7792 15.964C79.0405 15.8147 79.2435 15.607 79.3882 15.341C79.5329 15.0703 79.6052 14.7623 79.6052 14.417C79.6052 14.0717 79.5329 13.7637 79.3882 13.493C79.2435 13.2223 79.0405 13.01 78.7792 12.856C78.5179 12.702 78.2215 12.625 77.8902 12.625C77.5589 12.625 77.2625 12.702 77.0012 12.856C76.7399 13.01 76.5369 13.2223 76.3922 13.493C76.2475 13.7637 76.1752 14.0717 76.1752 14.417C76.1752 14.7623 76.2475 15.0703 76.3922 15.341C76.5369 15.607 76.7375 15.8147 76.9942 15.964C77.2555 16.1133 77.5542 16.188 77.8902 16.188ZM77.8902 17.077C77.4049 17.077 76.9569 16.958 76.5462 16.72C76.1402 16.482 75.8159 16.16 75.5732 15.754C75.3352 15.348 75.2162 14.9023 75.2162 14.417C75.2162 13.9317 75.3352 13.4837 75.5732 13.073C75.8159 12.6623 76.1425 12.338 76.5532 12.1C76.9639 11.8573 77.4095 11.736 77.8902 11.736C78.3709 11.736 78.8165 11.8573 79.2272 12.1C79.6379 12.338 79.9622 12.6623 80.2002 13.073C80.4429 13.4837 80.5642 13.9317 80.5642 14.417C80.5642 14.9023 80.4429 15.348 80.2002 15.754C79.9622 16.16 79.6379 16.482 79.2272 16.72C78.8212 16.958 78.3755 17.077 77.8902 17.077ZM85.5381 16.986C85.5381 16.9907 85.5381 16.9953 85.5381 17C85.5381 17 85.5358 17 85.5311 17H84.5651C84.5605 17 84.5558 17 84.5511 17C84.5465 16.9953 84.5441 16.9907 84.5441 16.986L82.9971 12.723H83.3891L81.8421 16.986C81.8421 16.9907 81.8398 16.9953 81.8351 17C81.8351 17 81.8305 17 81.8211 17H80.8551C80.8505 16.9953 80.8481 16.9907 80.8481 16.986L82.7241 11.827C82.7241 11.8177 82.7311 11.813 82.7451 11.813H83.6411C83.6551 11.813 83.6621 11.8177 83.6621 11.827L85.5381 16.986ZM84.3481 14.76V15.67H82.0381V14.76H84.3481ZM86.0566 17C86.0519 17 86.0472 17 86.0426 17C86.0426 16.9953 86.0426 16.9907 86.0426 16.986V11.827C86.0426 11.8223 86.0426 11.82 86.0426 11.82C86.0472 11.8153 86.0519 11.813 86.0566 11.813H86.9806V17H86.0566ZM86.5396 16.09H87.7856C88.1402 16.09 88.4342 16.02 88.6676 15.88C88.9056 15.74 89.0806 15.544 89.1926 15.292C89.3092 15.04 89.3676 14.746 89.3676 14.41C89.3676 14.0647 89.3116 13.766 89.1996 13.514C89.0876 13.262 88.9126 13.0683 88.6746 12.933C88.4412 12.793 88.1449 12.723 87.7856 12.723H86.5396V11.813H87.7856C88.3129 11.813 88.7656 11.932 89.1436 12.17C89.5262 12.408 89.8156 12.7253 90.0116 13.122C90.2076 13.5187 90.3056 13.948 90.3056 14.41C90.3056 14.8627 90.2076 15.2873 90.0116 15.684C89.8156 16.0807 89.5262 16.4003 89.1436 16.643C88.7656 16.881 88.3129 17 87.7856 17H86.5396V16.09ZM95.9713 16.188C96.3073 16.188 96.6036 16.1133 96.8603 15.964C97.1216 15.8147 97.3246 15.607 97.4693 15.341C97.6139 15.0703 97.6863 14.7623 97.6863 14.417C97.6863 14.0717 97.6139 13.7637 97.4693 13.493C97.3246 13.2223 97.1216 13.01 96.8603 12.856C96.5989 12.702 96.3026 12.625 95.9713 12.625C95.6399 12.625 95.3436 12.702 95.0823 12.856C94.8209 13.01 94.6179 13.2223 94.4733 13.493C94.3286 13.7637 94.2563 14.0717 94.2563 14.417C94.2563 14.7623 94.3286 15.0703 94.4733 15.341C94.6179 15.607 94.8186 15.8147 95.0753 15.964C95.3366 16.1133 95.6353 16.188 95.9713 16.188ZM95.9713 17.077C95.4859 17.077 95.0379 16.958 94.6273 16.72C94.2213 16.482 93.8969 16.16 93.6543 15.754C93.4163 15.348 93.2973 14.9023 93.2973 14.417C93.2973 13.9317 93.4163 13.4837 93.6543 13.073C93.8969 12.6623 94.2236 12.338 94.6343 12.1C95.0449 11.8573 95.4906 11.736 95.9713 11.736C96.4519 11.736 96.8976 11.8573 97.3083 12.1C97.7189 12.338 98.0433 12.6623 98.2813 13.073C98.5239 13.4837 98.6453 13.9317 98.6453 14.417C98.6453 14.9023 98.5239 15.348 98.2813 15.754C98.0433 16.16 97.7189 16.482 97.3083 16.72C96.9023 16.958 96.4566 17.077 95.9713 17.077ZM102.513 11.827C102.513 11.8223 102.513 11.82 102.513 11.82C102.518 11.8153 102.523 11.813 102.527 11.813H103.437C103.442 11.813 103.444 11.8153 103.444 11.82C103.449 11.82 103.451 11.8223 103.451 11.827V16.986C103.451 16.9907 103.449 16.9953 103.444 17C103.444 17 103.442 17 103.437 17H102.632C102.628 17 102.623 17 102.618 17C102.614 17 102.611 16.9977 102.611 16.993L100.413 13.521V16.986C100.413 16.9907 100.411 16.9953 100.406 17C100.406 17 100.404 17 100.399 17H99.4892C99.4845 17 99.4799 17 99.4752 17C99.4752 16.9953 99.4752 16.9907 99.4752 16.986V11.827C99.4752 11.8223 99.4752 11.82 99.4752 11.82C99.4799 11.8153 99.4845 11.813 99.4892 11.813H100.294C100.299 11.813 100.304 11.813 100.308 11.813C100.313 11.813 100.315 11.8153 100.315 11.82L102.513 15.292V11.827ZM108.783 16.986C108.783 16.9907 108.78 16.9953 108.776 17C108.776 17 108.773 17 108.769 17H107.859C107.854 17 107.849 17 107.845 17C107.845 16.9953 107.845 16.9907 107.845 16.986V12.233H108.783V16.986ZM110.148 11.813C110.152 11.813 110.155 11.8153 110.155 11.82C110.159 11.82 110.162 11.8223 110.162 11.827V12.709C110.162 12.7137 110.159 12.7183 110.155 12.723C110.155 12.723 110.152 12.723 110.148 12.723H106.473C106.468 12.723 106.463 12.723 106.459 12.723C106.459 12.7183 106.459 12.7137 106.459 12.709V11.827C106.459 11.8223 106.459 11.82 106.459 11.82C106.463 11.8153 106.468 11.813 106.473 11.813H110.148ZM111.727 16.986C111.727 16.9907 111.724 16.9953 111.72 17C111.72 17 111.717 17 111.713 17H110.803C110.798 17 110.793 17 110.789 17C110.789 16.9953 110.789 16.9907 110.789 16.986V11.827C110.789 11.8223 110.789 11.82 110.789 11.82C110.793 11.8153 110.798 11.813 110.803 11.813H111.713C111.717 11.813 111.72 11.8153 111.72 11.82C111.724 11.82 111.727 11.8223 111.727 11.827V16.986ZM114.968 16.986C114.968 16.9907 114.965 16.9953 114.961 17C114.961 17 114.958 17 114.954 17H114.044C114.039 17 114.034 17 114.03 17C114.03 16.9953 114.03 16.9907 114.03 16.986V11.827C114.03 11.8223 114.03 11.82 114.03 11.82C114.034 11.8153 114.039 11.813 114.044 11.813H114.954C114.958 11.813 114.961 11.8153 114.961 11.82C114.965 11.82 114.968 11.8223 114.968 11.827V16.986ZM114.506 14.781H111.272V13.871H114.506V14.781ZM116.032 17C116.027 17 116.023 17 116.018 17C116.018 16.9953 116.018 16.9907 116.018 16.986V11.827C116.018 11.8223 116.018 11.82 116.018 11.82C116.023 11.8153 116.027 11.813 116.032 11.813H116.956V17H116.032ZM119.168 11.813C119.173 11.813 119.175 11.8153 119.175 11.82C119.18 11.82 119.182 11.8223 119.182 11.827V12.709C119.182 12.7137 119.18 12.7183 119.175 12.723C119.175 12.723 119.173 12.723 119.168 12.723H116.494V11.813H119.168ZM119.168 16.09C119.173 16.09 119.175 16.0923 119.175 16.097C119.18 16.097 119.182 16.0993 119.182 16.104V16.986C119.182 16.9907 119.18 16.9953 119.175 17C119.175 17 119.173 17 119.168 17H116.494V16.09H119.168ZM118.937 13.983C118.942 13.983 118.944 13.9853 118.944 13.99C118.949 13.99 118.951 13.9923 118.951 13.997V14.809C118.951 14.8137 118.949 14.8183 118.944 14.823C118.944 14.823 118.942 14.823 118.937 14.823H116.494V13.983H118.937Z" fill="#1D1F29"/>
</svg>
