<svg xmlns="http://www.w3.org/2000/svg" width="30" height="30" viewBox="0 0 30 30" fill="none">
  <path d="M21.8984 15.6952C21.8867 13.6972 22.792 12.1913 24.6201 11.081C23.5977 9.61614 22.0508 8.81047 20.0117 8.6552C18.0811 8.50285 15.9687 9.7802 15.1953 9.7802C14.3779 9.7802 12.5088 8.70793 11.0381 8.70793C8.00293 8.75481 4.77734 11.1279 4.77734 15.956C4.77734 17.3827 5.03809 18.8564 5.55957 20.3739C6.25684 22.372 8.77051 27.2675 11.3926 27.1884C12.7637 27.1562 13.7334 26.2157 15.5176 26.2157C17.249 26.2157 18.1455 27.1884 19.6748 27.1884C22.3203 27.1503 24.5938 22.7001 25.2559 20.6962C21.708 19.0234 21.8984 15.7978 21.8984 15.6952Z" fill="#1D1F29"/>
  <path d="M18.8228 6.75879C20.3081 4.99512 20.1734 3.38965 20.1294 2.8125C18.8169 2.88867 17.2993 3.70605 16.4351 4.71094C15.4829 5.78906 14.9234 7.12207 15.0435 8.625C16.4614 8.7334 17.7564 8.00391 18.8228 6.75879Z" fill="#1D1F29"/>
</svg>