  <svg
    xmlns="http://www.w3.org/2000/svg"
    width="80"
    height="81"
    viewBox="0 0 80 81"
    fill="none"
  >
    <rect y="0.998047" width="80" height="80" rx="16" fill="#E0EAFF" />
    <path
      d="M29.332 24.2221C29.332 22.8083 30.4782 21.6621 31.892 21.6621H48.1054C49.5192 21.6621 50.6654 22.8083 50.6654 24.2221V52.4354C50.6654 53.8493 49.5192 54.9954 48.1054 54.9954H31.892C30.4782 54.9954 29.332 53.8493 29.332 52.4354V24.2221Z"
      stroke="#3754E5"
      stroke-width="2.56"
    />
    <path
      d="M19.999 32.7821C19.999 29.9544 22.2913 27.6621 25.119 27.6621H54.879C57.7067 27.6621 59.999 29.9544 59.999 32.7821V55.8754C59.999 58.7031 57.7067 60.9954 54.879 60.9954H25.119C22.2913 60.9954 19.999 58.7031 19.999 55.8754V32.7821Z"
      fill="#3754E5"
    />
    <path
      d="M19.999 32.7821C19.999 29.9544 22.2913 27.6621 25.119 27.6621H54.879C57.7067 27.6621 59.999 29.9544 59.999 32.7821V36.9954L41.9779 41.8011C40.6813 42.1468 39.3168 42.1468 38.0202 41.8011L19.999 36.9954V32.7821Z"
      fill="#8FA9FF"
    />
    <rect
      x="37.332"
      y="38.9961"
      width="5.33333"
      height="6.66667"
      rx="1.28"
      fill="#E0EAFF"
    />
  </svg>
