  <svg
    width="80"
    height="80"
    viewBox="0 0 80 80"
    fill="none"
    xmlns="http://www.w3.org/2000/svg"
  >
    <rect width="80" height="80" rx="16" fill="#E0EAFF" />
    <rect
      x="26.666"
      y="19.998"
      width="26.6667"
      height="37.3333"
      rx="5.12"
      fill="#8FA9FF"
    />
    <rect
      x="24"
      y="23.3301"
      width="32"
      height="36.6667"
      rx="5.12"
      fill="#3754E5"
    />
    <rect x="30" y="45.9961" width="20" height="2" rx="1" fill="#E0EAFF" />
    <rect x="30" y="51.332" width="20" height="2" rx="1" fill="#E0EAFF" />
    <path
      d="M33.6063 33.3106C33.6063 33.4693 33.5449 33.5692 33.422 33.6101C33.3043 33.646 33.1481 33.6152 32.9535 33.518L30.4115 32.22C30.3091 32.1688 30.2323 32.1048 30.1811 32.028C30.135 31.9461 30.1119 31.8463 30.1119 31.7285V31.7132C30.1119 31.493 30.2118 31.3292 30.4115 31.2216L32.9459 29.9007C33.1404 29.7983 33.2991 29.765 33.422 29.8008C33.5449 29.8367 33.6063 29.934 33.6063 30.0927V30.1848C33.6063 30.4818 33.4732 30.6994 33.207 30.8376L31.5327 31.7132L33.207 32.5656C33.3452 32.6373 33.4451 32.7269 33.5065 32.8344C33.5731 32.9368 33.6063 33.0648 33.6063 33.2184V33.3106ZM35.6333 34.5701C35.5411 34.8415 35.3517 34.9772 35.0649 34.9772H35.0573C34.8729 34.9772 34.7424 34.926 34.6656 34.8236C34.5939 34.7212 34.5888 34.5829 34.6502 34.4088L36.5779 28.8485C36.6701 28.5772 36.8595 28.4415 37.1462 28.4415H37.1539C37.3382 28.4415 37.4662 28.4927 37.5379 28.5951C37.6147 28.6975 37.6224 28.8357 37.5609 29.0098L35.6333 34.5701ZM39.2547 33.518C39.0602 33.6152 38.9015 33.646 38.7786 33.6101C38.6608 33.5692 38.6019 33.4693 38.6019 33.3106V33.2184C38.6019 33.0648 38.6327 32.9343 38.6941 32.8268C38.7607 32.7192 38.8631 32.6322 39.0013 32.5656L40.6755 31.7132L39.0013 30.8376C38.7351 30.6994 38.6019 30.4844 38.6019 30.1925V30.1848C38.6019 30.0005 38.6634 29.8828 38.7863 29.8316C38.9091 29.7752 39.0679 29.7983 39.2624 29.9007L41.7968 31.2216C41.9965 31.3292 42.0963 31.493 42.0963 31.7132V31.7285C42.0963 31.8463 42.0707 31.9461 42.0195 32.028C41.9735 32.1048 41.8992 32.1688 41.7968 32.22L39.2547 33.518Z"
      fill="#E0EAFF"
    />
    <path
      d="M33.422 33.6101L33.4686 33.7632L33.4726 33.7619L33.422 33.6101ZM32.9535 33.518L32.8808 33.6605L32.882 33.6611L32.9535 33.518ZM30.4115 32.22L30.4842 32.0775L30.483 32.0769L30.4115 32.22ZM30.1811 32.028L30.0412 32.1067L30.0479 32.1168L30.1811 32.028ZM30.4115 31.2216L30.3375 31.0797L30.3356 31.0808L30.4115 31.2216ZM32.9459 29.9007L33.0198 30.0426L33.0204 30.0423L32.9459 29.9007ZM33.422 29.8008L33.4668 29.6472L33.4668 29.6472L33.422 29.8008ZM33.207 30.8376L33.1333 30.6956L33.1328 30.6958L33.207 30.8376ZM31.5327 31.7132L31.4586 31.5714L31.1838 31.715L31.4601 31.8557L31.5327 31.7132ZM33.207 32.5656L33.2806 32.4236L33.2796 32.423L33.207 32.5656ZM33.5065 32.8344L33.3674 32.9139L33.3723 32.9216L33.5065 32.8344ZM33.4463 33.3106C33.4463 33.3705 33.4346 33.4034 33.424 33.4207C33.4151 33.4352 33.4012 33.4484 33.3714 33.4583L33.4726 33.7619C33.5657 33.7309 33.644 33.6737 33.6965 33.5884C33.7473 33.5058 33.7663 33.4094 33.7663 33.3106H33.4463ZM33.3754 33.457C33.3177 33.4746 33.2087 33.4666 33.0251 33.3748L32.882 33.6611C33.0875 33.7638 33.2908 33.8173 33.4686 33.7632L33.3754 33.457ZM33.0263 33.3755L30.4842 32.0775L30.3387 32.3625L32.8808 33.6605L33.0263 33.3755ZM30.483 32.0769C30.3996 32.0352 30.3466 31.988 30.3142 31.9393L30.0479 32.1168C30.1179 32.2217 30.2185 32.3024 30.3399 32.3631L30.483 32.0769ZM30.3205 31.9496C30.2909 31.897 30.2719 31.8256 30.2719 31.7285H29.9519C29.9519 31.8669 29.9791 31.9953 30.0416 32.1065L30.3205 31.9496ZM30.2719 31.7285V31.7132H29.9519V31.7285H30.2719ZM30.2719 31.7132C30.2719 31.628 30.291 31.5617 30.3235 31.5084C30.3561 31.4548 30.4079 31.4053 30.4873 31.3625L30.3356 31.0808C30.2153 31.1455 30.1174 31.2316 30.0502 31.3419C29.9828 31.4524 29.9519 31.5781 29.9519 31.7132H30.2719ZM30.4854 31.3635L33.0198 30.0426L32.8719 29.7588L30.3375 31.0797L30.4854 31.3635ZM33.0204 30.0423C33.2027 29.9463 33.3145 29.9361 33.3772 29.9544L33.4668 29.6472C33.2838 29.5938 33.0782 29.6502 32.8713 29.7591L33.0204 30.0423ZM33.3772 29.9544C33.4057 29.9627 33.4175 29.9742 33.425 29.9861C33.4345 30.0012 33.4463 30.0325 33.4463 30.0927H33.7663C33.7663 29.9941 33.7474 29.8974 33.6955 29.8152C33.6416 29.7298 33.5612 29.6748 33.4668 29.6472L33.3772 29.9544ZM33.4463 30.0927V30.1848H33.7663V30.0927H33.4463ZM33.4463 30.1848C33.4463 30.3088 33.4188 30.4075 33.37 30.4873C33.3212 30.5671 33.2451 30.6375 33.1333 30.6956L33.2807 30.9796C33.4351 30.8995 33.5587 30.792 33.643 30.6542C33.7273 30.5164 33.7663 30.3579 33.7663 30.1848H33.4463ZM33.1328 30.6958L31.4586 31.5714L31.6069 31.8549L33.2811 30.9794L33.1328 30.6958ZM31.4601 31.8557L33.1344 32.7082L33.2796 32.423L31.6053 31.5706L31.4601 31.8557ZM33.1333 32.7077C33.2513 32.7688 33.3249 32.8391 33.3676 32.9138L33.6454 32.755C33.5652 32.6147 33.4392 32.5058 33.2806 32.4236L33.1333 32.7077ZM33.3723 32.9216C33.4182 32.9921 33.4463 33.0878 33.4463 33.2184H33.7663C33.7663 33.0418 33.7279 32.8815 33.6407 32.7472L33.3723 32.9216ZM33.4463 33.2184V33.3106H33.7663V33.2184H33.4463ZM35.6333 34.5701L35.4821 34.5177L35.4818 34.5187L35.6333 34.5701ZM34.6656 34.8236L34.5344 34.9154L34.5376 34.9196L34.6656 34.8236ZM34.6502 34.4088L34.8011 34.4621L34.8014 34.4612L34.6502 34.4088ZM36.5779 28.8485L36.7291 28.9009L36.7294 28.9L36.5779 28.8485ZM37.5379 28.5951L37.4068 28.6869L37.4099 28.6911L37.5379 28.5951ZM37.5609 29.0098L37.4101 28.9565L37.4098 28.9574L37.5609 29.0098ZM35.4818 34.5187C35.4439 34.6301 35.3907 34.701 35.3289 34.7453C35.2671 34.7896 35.1827 34.8172 35.0649 34.8172V35.1372C35.2339 35.1372 35.3876 35.0969 35.5152 35.0055C35.6428 34.9141 35.7304 34.7815 35.7848 34.6216L35.4818 34.5187ZM35.0649 34.8172H35.0573V35.1372H35.0649V34.8172ZM35.0573 34.8172C34.9 34.8172 34.8285 34.7741 34.7936 34.7276L34.5376 34.9196C34.6563 35.0778 34.8459 35.1372 35.0573 35.1372V34.8172ZM34.7967 34.7318C34.7668 34.6892 34.7482 34.6119 34.8011 34.4621L34.4993 34.3556C34.4293 34.5539 34.421 34.7531 34.5345 34.9153L34.7967 34.7318ZM34.8014 34.4612L36.7291 28.9009L36.4267 28.7961L34.499 34.3564L34.8014 34.4612ZM36.7294 28.9C36.7672 28.7886 36.8204 28.7176 36.8823 28.6733C36.9441 28.629 37.0285 28.6015 37.1462 28.6015V28.2815C36.9773 28.2815 36.8236 28.3218 36.6959 28.4132C36.5683 28.5046 36.4807 28.6371 36.4264 28.7971L36.7294 28.9ZM37.1462 28.6015H37.1539V28.2815H37.1462V28.6015ZM37.1539 28.6015C37.3122 28.6015 37.3775 28.6449 37.4068 28.6868L37.669 28.5033C37.555 28.3404 37.3642 28.2815 37.1539 28.2815V28.6015ZM37.4099 28.6911C37.4419 28.7337 37.4622 28.8089 37.4101 28.9565L37.7118 29.063C37.7826 28.8625 37.7875 28.6613 37.6659 28.4991L37.4099 28.6911ZM37.4098 28.9574L35.4821 34.5177L35.7844 34.6225L37.7121 29.0622L37.4098 28.9574ZM39.2547 33.518L39.3263 33.6611L39.3275 33.6605L39.2547 33.518ZM38.7786 33.6101L38.7259 33.7614L38.7338 33.7637L38.7786 33.6101ZM38.6941 32.8268L38.558 32.7425L38.5552 32.7474L38.6941 32.8268ZM39.0013 32.5656L39.0707 32.7098L39.0739 32.7082L39.0013 32.5656ZM40.6755 31.7132L40.7481 31.8557L41.0244 31.715L40.7497 31.5714L40.6755 31.7132ZM39.0013 30.8376L39.0754 30.6958L39.075 30.6956L39.0013 30.8376ZM38.7863 29.8316L38.8478 29.9793L38.8529 29.977L38.7863 29.8316ZM39.2624 29.9007L39.1879 30.0423L39.1885 30.0426L39.2624 29.9007ZM41.7968 31.2216L41.8727 31.0807L41.8708 31.0797L41.7968 31.2216ZM42.0195 32.028L41.8838 31.9432L41.8823 31.9457L42.0195 32.028ZM41.7968 32.22L41.7253 32.0769L41.7241 32.0775L41.7968 32.22ZM39.1832 33.3748C39.0013 33.4658 38.8882 33.4754 38.8234 33.4565L38.7338 33.7637C38.9147 33.8165 39.1191 33.7647 39.3263 33.6611L39.1832 33.3748ZM38.8311 33.459C38.8051 33.4499 38.7926 33.4379 38.7839 33.4232C38.7734 33.4054 38.7619 33.3715 38.7619 33.3106H38.4419C38.4419 33.4084 38.4599 33.5038 38.5083 33.5858C38.5585 33.6709 38.6343 33.7293 38.726 33.7612L38.8311 33.459ZM38.7619 33.3106V33.2184H38.4419V33.3106H38.7619ZM38.7619 33.2184C38.7619 33.0861 38.7883 32.9843 38.833 32.9061L38.5552 32.7474C38.477 32.8842 38.4419 33.0436 38.4419 33.2184H38.7619ZM38.8301 32.911C38.8775 32.8344 38.954 32.766 39.0707 32.7098L38.9319 32.4215C38.7721 32.4984 38.6438 32.604 38.5581 32.7425L38.8301 32.911ZM39.0739 32.7082L40.7481 31.8557L40.6029 31.5706L38.9287 32.423L39.0739 32.7082ZM40.7497 31.5714L39.0754 30.6958L38.9272 30.9794L40.6014 31.8549L40.7497 31.5714ZM39.075 30.6956C38.9627 30.6373 38.8866 30.5672 38.8378 30.4885C38.7892 30.4099 38.7619 30.3133 38.7619 30.1925H38.4419C38.4419 30.3635 38.4812 30.5204 38.5657 30.6569C38.6501 30.7932 38.7737 30.8997 38.9276 30.9796L39.075 30.6956ZM38.7619 30.1925V30.1848H38.4419V30.1925H38.7619ZM38.7619 30.1848C38.7619 30.0355 38.8078 29.9959 38.8478 29.9792L38.7247 29.6839C38.5189 29.7696 38.4419 29.9655 38.4419 30.1848H38.7619ZM38.8529 29.977C38.9085 29.9515 39.0098 29.9485 39.1879 30.0423L39.3369 29.7591C39.1259 29.648 38.9098 29.5989 38.7196 29.6861L38.8529 29.977ZM39.1885 30.0426L41.7229 31.3635L41.8708 31.0797L39.3364 29.7588L39.1885 30.0426ZM41.721 31.3625C41.8004 31.4053 41.8522 31.4548 41.8848 31.5084C41.9173 31.5617 41.9363 31.628 41.9363 31.7132H42.2563C42.2563 31.5781 42.2254 31.4524 42.1581 31.3419C42.0909 31.2316 41.9929 31.1455 41.8727 31.0808L41.721 31.3625ZM41.9363 31.7132V31.7285H42.2563V31.7132H41.9363ZM41.9363 31.7285C41.9363 31.8229 41.916 31.8918 41.8839 31.9432L42.1552 32.1128C42.2255 32.0004 42.2563 31.8697 42.2563 31.7285H41.9363ZM41.8823 31.9457C41.8557 31.9901 41.8079 32.0356 41.7253 32.0769L41.8684 32.3631C41.9905 32.3021 42.0912 32.2196 42.1567 32.1104L41.8823 31.9457ZM41.7241 32.0775L39.182 33.3755L39.3275 33.6605L41.8696 32.3625L41.7241 32.0775Z"
      fill="#E0EAFF"
    />
  </svg>
