  <svg width="40" height="41" viewBox="0 0 40 41" fill="none" xmlns="http://www.w3.org/2000/svg">
    <path d="M9.33203 4.22211C9.33203 2.80826 10.4782 1.66211 11.892 1.66211H28.1054C29.5192 1.66211 30.6654 2.80826 30.6654 4.22211V32.4354C30.6654 33.8493 29.5192 34.9954 28.1054 34.9954H11.892C10.4782 34.9954 9.33203 33.8493 9.33203 32.4354V4.22211Z" stroke="#3652D9" stroke-width="2.56"/>
    <path d="M-0.000976562 12.7821C-0.000976562 9.95441 2.29133 7.66211 5.11902 7.66211H34.879C37.7067 7.66211 39.999 9.95441 39.999 12.7821V35.8754C39.999 38.7031 37.7067 40.9954 34.879 40.9954H5.11902C2.29132 40.9954 -0.000976562 38.7031 -0.000976562 35.8754V12.7821Z" fill="#3652D9"/>
    <path d="M-0.000976562 12.7821C-0.000976562 9.95441 2.29133 7.66211 5.11902 7.66211H34.879C37.7067 7.66211 39.999 9.95441 39.999 12.7821V16.9954L21.9779 21.8011C20.6813 22.1468 19.3168 22.1468 18.0202 21.8011L-0.000976562 16.9954V12.7821Z" fill="#5974DD"/>
    <rect x="17.332" y="18.9961" width="5.33333" height="6.66667" rx="1.28" fill="#DCE6FA"/>
  </svg>
