<svg xmlns="http://www.w3.org/2000/svg" width="20" height="20" viewBox="0 0 20 20" fill="none">
  <path fill-rule="evenodd" clip-rule="evenodd" d="M16.0104 5.04958C16.3033 4.75669 16.3033 4.28182 16.0104 3.98892C15.7175 3.69603 15.2426 3.69603 14.9497 3.98892L10 8.93867L5.05025 3.98892C4.75736 3.69603 4.28249 3.69603 3.98959 3.98892C3.6967 4.28182 3.6967 4.75669 3.98959 5.04958L8.93934 9.99933L3.98959 14.9491C3.6967 15.242 3.6967 15.7168 3.98959 16.0097C4.28249 16.3026 4.75736 16.3026 5.05025 16.0097L10 11.06L14.9497 16.0097C15.2426 16.3026 15.7175 16.3026 16.0104 16.0097C16.3033 15.7168 16.3033 15.242 16.0104 14.9491L11.0607 9.99933L16.0104 5.04958Z" fill="#F5F5F7"/>
</svg>