  <svg width="30" height="30" viewBox="0 0 30 30" fill="none" xmlns="http://www.w3.org/2000/svg">
  <path d="M27.1408 0.599609H2.85842C1.61605 0.599609 0.599609 1.61611 0.599609 2.85842V27.1407C0.599609 28.383 1.61608 29.3995 2.85842 29.3995H27.1408C28.3832 29.3995 29.3996 28.383 29.3996 27.1407V2.85842C29.3996 1.61611 28.3831 0.599609 27.1408 0.599609ZM23.9542 16.8148H21.05V27.7054H17.0568V16.8148H14.1525V13.1844H17.0568V8.82815C17.0568 7.01305 18.6529 6.11789 19.5979 5.92391C20.7536 5.68677 24.1357 5.74248 24.1357 5.74248V9.73567H21.5946C20.8685 9.73567 20.8685 10.4618 20.8685 10.4618V13.1844H24.3173L23.9542 16.8148Z" fill="#8C8F9A"/>
  </svg>
