<svg width="140" height="44" viewBox="0 0 140 44" fill="none" xmlns="http://www.w3.org/2000/svg">
<rect x="0.5" y="0.5" width="139" height="43" rx="7.5" stroke="#2C2D36"/>
<path d="M33.0417 12.1974L34.2811 10.395C34.3341 10.3182 34.3146 10.2118 34.2379 10.1587L34.207 10.1375C34.1303 10.0841 34.0244 10.1039 33.9714 10.1806L32.6963 12.0349C31.8635 11.6727 30.9344 11.4704 29.9541 11.4704C29.0238 11.4704 28.1391 11.6526 27.3399 11.9809L26.1215 10.2091C26.0687 10.1324 25.9626 10.1129 25.8859 10.1659L25.855 10.1872C25.7782 10.2403 25.7587 10.3467 25.8115 10.4238L26.9897 12.1365C25.1373 13.0242 23.8062 14.7169 23.5352 16.7156H36.3731C36.1083 14.7615 34.83 13.0997 33.0417 12.1974ZM27.2508 14.7792C26.8977 14.7792 26.6111 14.4917 26.6111 14.1373C26.6111 13.783 26.8977 13.4958 27.2508 13.4958C27.6043 13.4958 27.8906 13.783 27.8906 14.1373C27.8906 14.4917 27.6043 14.7792 27.2508 14.7792ZM32.7731 14.7792C32.4199 14.7792 32.1333 14.4917 32.1333 14.1373C32.1333 13.783 32.4199 13.4958 32.7731 13.4958C33.1266 13.4958 33.4129 13.783 33.4129 14.1373C33.4129 14.4917 33.1266 14.7792 32.7731 14.7792Z" fill="#F5F5F7"/>
<path d="M22.6447 19.2868V24.5441C22.6447 25.4453 22.0706 26.1828 21.3684 26.1828H21.0848C20.383 26.1828 19.8086 25.4453 19.8086 24.5441V19.2868C19.8086 18.3856 20.383 17.6484 21.0848 17.6484H21.3684C22.0706 17.6484 22.6447 18.3856 22.6447 19.2868Z" fill="#F5F5F7"/>
<path d="M40.1955 19.3181V24.5753C40.1955 25.4768 39.6213 26.214 38.9192 26.214H38.6356C37.9338 26.214 37.3594 25.4768 37.3594 24.5753V19.3181C37.3594 18.4169 37.9338 17.6797 38.6356 17.6797H38.9192C39.6213 17.6797 40.1955 18.4169 40.1955 19.3181Z" fill="#F5F5F7"/>
<path d="M36.4705 17.5703V27.9436C36.4705 28.6637 35.8832 29.2528 35.1652 29.2528H34.0886V32.2505C34.0886 33.1516 33.5142 33.8888 32.8124 33.8888H32.5288C31.8269 33.8888 31.2525 33.1516 31.2525 32.2505V29.2528H28.8542V32.216C28.8542 33.1172 28.28 33.8547 27.5779 33.8547H27.2943C26.5925 33.8547 26.0181 33.1172 26.0181 32.216V29.2528H24.8444C24.1264 29.2528 23.5391 28.6637 23.5391 27.9436V17.5703H36.4705Z" fill="#F5F5F7"/>
<path d="M58.338 31.972C58.338 31.9813 58.338 31.9907 58.338 32C58.338 32 58.3333 32 58.324 32H56.392C56.3827 32 56.3733 32 56.364 32C56.3547 31.9907 56.35 31.9813 56.35 31.972L53.256 23.446H54.04L50.946 31.972C50.946 31.9813 50.9413 31.9907 50.932 32C50.932 32 50.9227 32 50.904 32H48.972C48.9627 31.9907 48.958 31.9813 48.958 31.972L52.71 21.654C52.71 21.6353 52.724 21.626 52.752 21.626H54.544C54.572 21.626 54.586 21.6353 54.586 21.654L58.338 31.972ZM55.958 27.52V29.34H51.338V27.52H55.958ZM60.9289 31.972C60.9289 31.9813 60.9242 31.9907 60.9149 32C60.9149 32 60.9102 32 60.9009 32H59.1649C59.1555 32 59.1462 32 59.1369 32C59.1369 31.9907 59.1369 31.9813 59.1369 31.972V24.608C59.1369 24.5987 59.1369 24.594 59.1369 24.594C59.1462 24.5847 59.1555 24.58 59.1649 24.58H60.9009C60.9102 24.58 60.9149 24.5847 60.9149 24.594C60.9242 24.594 60.9289 24.5987 60.9289 24.608V31.972ZM59.1369 29.704C59.1369 28.7707 59.3095 27.898 59.6549 27.086C60.0002 26.274 60.4762 25.63 61.0829 25.154C61.6895 24.6687 62.3662 24.426 63.1129 24.426C63.5889 24.426 64.0322 24.5613 64.4429 24.832C64.8629 25.1027 65.1989 25.4993 65.4509 26.022C65.7122 26.5353 65.8429 27.1373 65.8429 27.828V31.972C65.8429 31.9813 65.8382 31.9907 65.8289 32C65.8289 32 65.8242 32 65.8149 32H64.0789C64.0695 32 64.0602 32 64.0509 32C64.0509 31.9907 64.0509 31.9813 64.0509 31.972V27.828C64.0509 27.4453 63.9809 27.1327 63.8409 26.89C63.7009 26.638 63.5235 26.456 63.3089 26.344C63.0942 26.2227 62.8702 26.162 62.6369 26.162C62.3009 26.162 62.0069 26.232 61.7549 26.372C61.5029 26.512 61.3022 26.75 61.1529 27.086C61.0035 27.422 60.9289 27.8747 60.9289 28.444L59.1369 29.704ZM71.1157 30.544C71.5544 30.544 71.9371 30.4507 72.2637 30.264C72.5904 30.0773 72.8424 29.816 73.0197 29.48C73.1971 29.1347 73.2857 28.738 73.2857 28.29C73.2857 27.842 73.1971 27.4453 73.0197 27.1C72.8424 26.7547 72.5904 26.4887 72.2637 26.302C71.9371 26.1153 71.5544 26.022 71.1157 26.022C70.7704 26.022 70.4484 26.12 70.1497 26.316C69.8604 26.5027 69.6317 26.7687 69.4637 27.114C69.2957 27.4593 69.2117 27.8513 69.2117 28.29C69.2117 28.7287 69.2957 29.1207 69.4637 29.466C69.6317 29.802 69.8604 30.068 70.1497 30.264C70.4391 30.4507 70.7611 30.544 71.1157 30.544ZM70.9757 32.154C70.2757 32.154 69.6457 31.9813 69.0857 31.636C68.5257 31.2907 68.0871 30.824 67.7697 30.236C67.4524 29.6387 67.2937 28.99 67.2937 28.29C67.2937 27.59 67.4524 26.946 67.7697 26.358C68.0871 25.7607 68.5257 25.2893 69.0857 24.944C69.6457 24.5987 70.2757 24.426 70.9757 24.426C71.6664 24.426 72.2544 24.6267 72.7397 25.028C73.2344 25.42 73.6031 25.9147 73.8457 26.512C74.0884 27.1093 74.2097 27.702 74.2097 28.29C74.2097 28.878 74.0884 29.4707 73.8457 30.068C73.6031 30.6653 73.2344 31.1647 72.7397 31.566C72.2544 31.958 71.6664 32.154 70.9757 32.154ZM74.9237 31.972C74.9237 31.9813 74.9191 31.9907 74.9097 32C74.9097 32 74.9051 32 74.8957 32H73.1597C73.1504 32 73.1411 32 73.1317 32C73.1317 31.9907 73.1317 31.9813 73.1317 31.972V29.606L73.5237 28.346L73.1317 27.016V21.416C73.1317 21.4067 73.1317 21.402 73.1317 21.402C73.1411 21.3927 73.1504 21.388 73.1597 21.388H74.8957C74.9051 21.388 74.9097 21.3927 74.9097 21.402C74.9191 21.402 74.9237 21.4067 74.9237 21.416V31.972ZM78.4015 31.972C78.4015 31.9813 78.3969 31.9907 78.3875 32C78.3875 32 78.3829 32 78.3735 32H76.6375C76.6282 32 76.6189 32 76.6095 32C76.6095 31.9907 76.6095 31.9813 76.6095 31.972V24.608C76.6095 24.5987 76.6095 24.594 76.6095 24.594C76.6189 24.5847 76.6282 24.58 76.6375 24.58H78.3735C78.3829 24.58 78.3875 24.5847 78.3875 24.594C78.3969 24.594 78.4015 24.5987 78.4015 24.608V31.972ZM76.6095 29.704C76.6095 28.7427 76.7775 27.8607 77.1135 27.058C77.4495 26.2553 77.9255 25.616 78.5415 25.14C79.1575 24.664 79.8669 24.426 80.6695 24.426C80.6789 24.426 80.6835 24.4307 80.6835 24.44C80.6929 24.44 80.6975 24.4447 80.6975 24.454V26.134C80.6975 26.1433 80.6929 26.1527 80.6835 26.162C80.6835 26.162 80.6789 26.162 80.6695 26.162C80.1375 26.162 79.7035 26.2367 79.3675 26.386C79.0409 26.526 78.7982 26.764 78.6395 27.1C78.4809 27.4267 78.4015 27.8747 78.4015 28.444L76.6095 29.704ZM83.7209 23.082C83.7209 23.0913 83.7162 23.1007 83.7069 23.11C83.7069 23.11 83.7022 23.11 83.6929 23.11H81.9569C81.9475 23.11 81.9382 23.11 81.9289 23.11C81.9289 23.1007 81.9289 23.0913 81.9289 23.082V21.416C81.9289 21.4067 81.9289 21.402 81.9289 21.402C81.9382 21.3927 81.9475 21.388 81.9569 21.388H83.6929C83.7022 21.388 83.7069 21.3927 83.7069 21.402C83.7162 21.402 83.7209 21.4067 83.7209 21.416V23.082ZM83.7209 31.972C83.7209 31.9813 83.7162 31.9907 83.7069 32C83.7069 32 83.7022 32 83.6929 32H81.9569C81.9475 32 81.9382 32 81.9289 32C81.9289 31.9907 81.9289 31.9813 81.9289 31.972V24.608C81.9289 24.5987 81.9289 24.594 81.9289 24.594C81.9382 24.5847 81.9475 24.58 81.9569 24.58H83.6929C83.7022 24.58 83.7069 24.5847 83.7069 24.594C83.7162 24.594 83.7209 24.5987 83.7209 24.608V31.972ZM89.0816 30.502C89.4922 30.502 89.8516 30.4087 90.1596 30.222C90.4676 30.0353 90.7009 29.774 90.8596 29.438C91.0276 29.102 91.1116 28.7193 91.1116 28.29C91.1116 27.8513 91.0276 27.4687 90.8596 27.142C90.7009 26.806 90.4676 26.5447 90.1596 26.358C89.8516 26.1713 89.4922 26.078 89.0816 26.078C88.6709 26.078 88.3116 26.1713 88.0036 26.358C87.6956 26.5447 87.4576 26.806 87.2896 27.142C87.1309 27.4687 87.0516 27.8513 87.0516 28.29C87.0516 28.7193 87.1356 29.102 87.3036 29.438C87.4716 29.774 87.7049 30.0353 88.0036 30.222C88.3116 30.4087 88.6709 30.502 89.0816 30.502ZM89.0816 32.154C88.3816 32.154 87.7329 31.9813 87.1356 31.636C86.5476 31.2813 86.0809 30.81 85.7356 30.222C85.3902 29.6247 85.2176 28.9807 85.2176 28.29C85.2176 27.59 85.3902 26.946 85.7356 26.358C86.0902 25.7607 86.5616 25.2893 87.1496 24.944C87.7469 24.5987 88.3909 24.426 89.0816 24.426C89.7816 24.426 90.4256 24.5987 91.0136 24.944C91.6109 25.2893 92.0822 25.7607 92.4276 26.358C92.7729 26.946 92.9456 27.59 92.9456 28.29C92.9456 28.9807 92.7729 29.6247 92.4276 30.222C92.0822 30.81 91.6109 31.2813 91.0136 31.636C90.4256 31.9813 89.7816 32.154 89.0816 32.154ZM97.9946 30.544C98.4333 30.544 98.816 30.4507 99.1426 30.264C99.4693 30.0773 99.7213 29.816 99.8986 29.48C100.076 29.1347 100.165 28.738 100.165 28.29C100.165 27.842 100.076 27.4453 99.8986 27.1C99.7213 26.7547 99.4693 26.4887 99.1426 26.302C98.816 26.1153 98.4333 26.022 97.9946 26.022C97.6493 26.022 97.3273 26.12 97.0286 26.316C96.7393 26.5027 96.5106 26.7687 96.3426 27.114C96.1746 27.4593 96.0906 27.8513 96.0906 28.29C96.0906 28.7287 96.1746 29.1207 96.3426 29.466C96.5106 29.802 96.7393 30.068 97.0286 30.264C97.318 30.4507 97.64 30.544 97.9946 30.544ZM97.8546 32.154C97.1546 32.154 96.5246 31.9813 95.9646 31.636C95.4046 31.2907 94.966 30.824 94.6486 30.236C94.3313 29.6387 94.1726 28.99 94.1726 28.29C94.1726 27.59 94.3313 26.946 94.6486 26.358C94.966 25.7607 95.4046 25.2893 95.9646 24.944C96.5246 24.5987 97.1546 24.426 97.8546 24.426C98.5453 24.426 99.1333 24.6267 99.6186 25.028C100.113 25.42 100.482 25.9147 100.725 26.512C100.967 27.1093 101.089 27.702 101.089 28.29C101.089 28.878 100.967 29.4707 100.725 30.068C100.482 30.6653 100.113 31.1647 99.6186 31.566C99.1333 31.958 98.5453 32.154 97.8546 32.154ZM101.803 31.972C101.803 31.9813 101.798 31.9907 101.789 32C101.789 32 101.784 32 101.775 32H100.039C100.029 32 100.02 32 100.011 32C100.011 31.9907 100.011 31.9813 100.011 31.972V29.606L100.403 28.346L100.011 27.016V21.416C100.011 21.4067 100.011 21.402 100.011 21.402C100.02 21.3927 100.029 21.388 100.039 21.388H101.775C101.784 21.388 101.789 21.3927 101.789 21.402C101.798 21.402 101.803 21.4067 101.803 21.416V31.972Z" fill="#F5F5F7"/>
<path d="M49.539 17C49.5343 17 49.5297 17 49.525 17C49.525 16.9953 49.525 16.9907 49.525 16.986V11.827C49.525 11.8223 49.525 11.82 49.525 11.82C49.5297 11.8153 49.5343 11.813 49.539 11.813H50.463V17H49.539ZM50.022 16.09H51.268C51.6227 16.09 51.9167 16.02 52.15 15.88C52.388 15.74 52.563 15.544 52.675 15.292C52.7917 15.04 52.85 14.746 52.85 14.41C52.85 14.0647 52.794 13.766 52.682 13.514C52.57 13.262 52.395 13.0683 52.157 12.933C51.9237 12.793 51.6273 12.723 51.268 12.723H50.022V11.813H51.268C51.7953 11.813 52.248 11.932 52.626 12.17C53.0087 12.408 53.298 12.7253 53.494 13.122C53.69 13.5187 53.788 13.948 53.788 14.41C53.788 14.8627 53.69 15.2873 53.494 15.684C53.298 16.0807 53.0087 16.4003 52.626 16.643C52.248 16.881 51.7953 17 51.268 17H50.022V16.09ZM57.0748 16.188C57.4108 16.188 57.7071 16.1133 57.9638 15.964C58.2251 15.8147 58.4281 15.607 58.5728 15.341C58.7174 15.0703 58.7898 14.7623 58.7898 14.417C58.7898 14.0717 58.7174 13.7637 58.5728 13.493C58.4281 13.2223 58.2251 13.01 57.9638 12.856C57.7024 12.702 57.4061 12.625 57.0748 12.625C56.7434 12.625 56.4471 12.702 56.1858 12.856C55.9244 13.01 55.7214 13.2223 55.5768 13.493C55.4321 13.7637 55.3598 14.0717 55.3598 14.417C55.3598 14.7623 55.4321 15.0703 55.5768 15.341C55.7214 15.607 55.9221 15.8147 56.1788 15.964C56.4401 16.1133 56.7388 16.188 57.0748 16.188ZM57.0748 17.077C56.5894 17.077 56.1414 16.958 55.7308 16.72C55.3248 16.482 55.0004 16.16 54.7578 15.754C54.5198 15.348 54.4008 14.9023 54.4008 14.417C54.4008 13.9317 54.5198 13.4837 54.7578 13.073C55.0004 12.6623 55.3271 12.338 55.7378 12.1C56.1484 11.8573 56.5941 11.736 57.0748 11.736C57.5554 11.736 58.0011 11.8573 58.4118 12.1C58.8224 12.338 59.1468 12.6623 59.3848 13.073C59.6274 13.4837 59.7488 13.9317 59.7488 14.417C59.7488 14.9023 59.6274 15.348 59.3848 15.754C59.1468 16.16 58.8224 16.482 58.4118 16.72C58.0058 16.958 57.5601 17.077 57.0748 17.077ZM60.1237 11.827C60.1237 11.8223 60.1237 11.82 60.1237 11.82C60.1237 11.8153 60.126 11.813 60.1307 11.813H61.0687C61.0734 11.813 61.0757 11.8153 61.0757 11.82C61.0804 11.82 61.0827 11.8223 61.0827 11.827L61.8737 15.103L62.8047 11.827C62.8047 11.8177 62.8094 11.813 62.8187 11.813H63.6307C63.64 11.813 63.6447 11.8177 63.6447 11.827L64.6177 15.124L65.4087 11.827C65.4087 11.8177 65.4134 11.813 65.4227 11.813H66.3607C66.3654 11.813 66.3677 11.8153 66.3677 11.82C66.3677 11.82 66.3677 11.8223 66.3677 11.827L65.0797 16.986C65.0797 16.9953 65.075 17 65.0657 17H64.2677C64.2584 17 64.2537 16.9953 64.2537 16.986L63.2317 13.374L62.2377 16.986C62.2377 16.9953 62.233 17 62.2237 17H61.4257C61.4164 17 61.4117 16.9953 61.4117 16.986L60.1237 11.827ZM70.0015 11.827C70.0015 11.8223 70.0015 11.82 70.0015 11.82C70.0061 11.8153 70.0108 11.813 70.0155 11.813H70.9255C70.9301 11.813 70.9325 11.8153 70.9325 11.82C70.9371 11.82 70.9395 11.8223 70.9395 11.827V16.986C70.9395 16.9907 70.9371 16.9953 70.9325 17C70.9325 17 70.9301 17 70.9255 17H70.1205C70.1158 17 70.1111 17 70.1065 17C70.1018 17 70.0995 16.9977 70.0995 16.993L67.9015 13.521V16.986C67.9015 16.9907 67.8991 16.9953 67.8945 17C67.8945 17 67.8921 17 67.8875 17H66.9775C66.9728 17 66.9681 17 66.9635 17C66.9635 16.9953 66.9635 16.9907 66.9635 16.986V11.827C66.9635 11.8223 66.9635 11.82 66.9635 11.82C66.9681 11.8153 66.9728 11.813 66.9775 11.813H67.7825C67.7871 11.813 67.7918 11.813 67.7965 11.813C67.8011 11.813 67.8035 11.8153 67.8035 11.82L70.0015 15.292V11.827ZM72.0019 17C71.9972 17 71.9926 17 71.9879 17C71.9879 16.9953 71.9879 16.9907 71.9879 16.986V11.827C71.9879 11.8223 71.9879 11.82 71.9879 11.82C71.9926 11.8153 71.9972 11.813 72.0019 11.813H72.9119C72.9166 11.813 72.9189 11.8153 72.9189 11.82C72.9236 11.82 72.9259 11.8223 72.9259 11.827V17H72.0019ZM75.1029 16.09C75.1076 16.09 75.1099 16.0923 75.1099 16.097C75.1146 16.097 75.1169 16.0993 75.1169 16.104V16.986C75.1169 16.9907 75.1146 16.9953 75.1099 17C75.1099 17 75.1076 17 75.1029 17H72.5899V16.09H75.1029ZM77.8902 16.188C78.2262 16.188 78.5225 16.1133 78.7792 15.964C79.0405 15.8147 79.2435 15.607 79.3882 15.341C79.5329 15.0703 79.6052 14.7623 79.6052 14.417C79.6052 14.0717 79.5329 13.7637 79.3882 13.493C79.2435 13.2223 79.0405 13.01 78.7792 12.856C78.5179 12.702 78.2215 12.625 77.8902 12.625C77.5589 12.625 77.2625 12.702 77.0012 12.856C76.7399 13.01 76.5369 13.2223 76.3922 13.493C76.2475 13.7637 76.1752 14.0717 76.1752 14.417C76.1752 14.7623 76.2475 15.0703 76.3922 15.341C76.5369 15.607 76.7375 15.8147 76.9942 15.964C77.2555 16.1133 77.5542 16.188 77.8902 16.188ZM77.8902 17.077C77.4049 17.077 76.9569 16.958 76.5462 16.72C76.1402 16.482 75.8159 16.16 75.5732 15.754C75.3352 15.348 75.2162 14.9023 75.2162 14.417C75.2162 13.9317 75.3352 13.4837 75.5732 13.073C75.8159 12.6623 76.1425 12.338 76.5532 12.1C76.9639 11.8573 77.4095 11.736 77.8902 11.736C78.3709 11.736 78.8165 11.8573 79.2272 12.1C79.6379 12.338 79.9622 12.6623 80.2002 13.073C80.4429 13.4837 80.5642 13.9317 80.5642 14.417C80.5642 14.9023 80.4429 15.348 80.2002 15.754C79.9622 16.16 79.6379 16.482 79.2272 16.72C78.8212 16.958 78.3755 17.077 77.8902 17.077ZM85.5381 16.986C85.5381 16.9907 85.5381 16.9953 85.5381 17C85.5381 17 85.5358 17 85.5311 17H84.5651C84.5605 17 84.5558 17 84.5511 17C84.5465 16.9953 84.5441 16.9907 84.5441 16.986L82.9971 12.723H83.3891L81.8421 16.986C81.8421 16.9907 81.8398 16.9953 81.8351 17C81.8351 17 81.8305 17 81.8211 17H80.8551C80.8505 16.9953 80.8481 16.9907 80.8481 16.986L82.7241 11.827C82.7241 11.8177 82.7311 11.813 82.7451 11.813H83.6411C83.6551 11.813 83.6621 11.8177 83.6621 11.827L85.5381 16.986ZM84.3481 14.76V15.67H82.0381V14.76H84.3481ZM86.0566 17C86.0519 17 86.0472 17 86.0426 17C86.0426 16.9953 86.0426 16.9907 86.0426 16.986V11.827C86.0426 11.8223 86.0426 11.82 86.0426 11.82C86.0472 11.8153 86.0519 11.813 86.0566 11.813H86.9806V17H86.0566ZM86.5396 16.09H87.7856C88.1402 16.09 88.4342 16.02 88.6676 15.88C88.9056 15.74 89.0806 15.544 89.1926 15.292C89.3092 15.04 89.3676 14.746 89.3676 14.41C89.3676 14.0647 89.3116 13.766 89.1996 13.514C89.0876 13.262 88.9126 13.0683 88.6746 12.933C88.4412 12.793 88.1449 12.723 87.7856 12.723H86.5396V11.813H87.7856C88.3129 11.813 88.7656 11.932 89.1436 12.17C89.5262 12.408 89.8156 12.7253 90.0116 13.122C90.2076 13.5187 90.3056 13.948 90.3056 14.41C90.3056 14.8627 90.2076 15.2873 90.0116 15.684C89.8156 16.0807 89.5262 16.4003 89.1436 16.643C88.7656 16.881 88.3129 17 87.7856 17H86.5396V16.09ZM97.6583 16.986C97.6583 16.9907 97.6583 16.9953 97.6583 17C97.6583 17 97.6559 17 97.6513 17H96.6853C96.6806 17 96.6759 17 96.6713 17C96.6666 16.9953 96.6643 16.9907 96.6643 16.986L95.1173 12.723H95.5093L93.9623 16.986C93.9623 16.9907 93.9599 16.9953 93.9553 17C93.9553 17 93.9506 17 93.9413 17H92.9753C92.9706 16.9953 92.9683 16.9907 92.9683 16.986L94.8443 11.827C94.8443 11.8177 94.8513 11.813 94.8653 11.813H95.7613C95.7753 11.813 95.7823 11.8177 95.7823 11.827L97.6583 16.986ZM96.4683 14.76V15.67H94.1583V14.76H96.4683ZM99.1007 16.986C99.1007 16.9907 99.0984 16.9953 99.0937 17C99.0937 17 99.0914 17 99.0867 17H98.1767C98.172 17 98.1674 17 98.1627 17C98.1627 16.9953 98.1627 16.9907 98.1627 16.986V11.827C98.1627 11.8223 98.1627 11.82 98.1627 11.82C98.1674 11.8153 98.172 11.813 98.1767 11.813H99.1007V16.986ZM98.6387 14.067H99.8987C100.057 14.067 100.193 14.0367 100.305 13.976C100.417 13.9153 100.501 13.8337 100.557 13.731C100.613 13.6283 100.641 13.514 100.641 13.388C100.641 13.262 100.613 13.15 100.557 13.052C100.501 12.9493 100.417 12.87 100.305 12.814C100.193 12.7533 100.057 12.723 99.8987 12.723H98.7927V11.813H99.8987C100.216 11.813 100.503 11.89 100.76 12.044C101.016 12.1933 101.217 12.3893 101.362 12.632C101.506 12.8747 101.579 13.1267 101.579 13.388C101.579 13.6447 101.506 13.8967 101.362 14.144C101.217 14.3867 101.016 14.5873 100.76 14.746C100.503 14.9 100.216 14.977 99.8987 14.977H98.6387V14.067ZM103.318 16.986C103.318 16.9907 103.316 16.9953 103.311 17C103.311 17 103.309 17 103.304 17H102.394C102.39 17 102.385 17 102.38 17C102.38 16.9953 102.38 16.9907 102.38 16.986V11.827C102.38 11.8223 102.38 11.82 102.38 11.82C102.385 11.8153 102.39 11.813 102.394 11.813H103.304C103.309 11.813 103.311 11.8153 103.311 11.82C103.316 11.82 103.318 11.8223 103.318 11.827V16.986ZM104.9 11.82C104.9 11.8153 104.9 11.813 104.9 11.813C104.905 11.813 104.91 11.813 104.914 11.813H106.069C106.074 11.813 106.076 11.8153 106.076 11.82C106.076 11.82 106.076 11.8223 106.076 11.827L102.954 15.579L102.548 14.697L104.9 11.82ZM106.391 16.986C106.391 16.9907 106.391 16.9953 106.391 17C106.391 17 106.389 17 106.384 17H105.32C105.316 17 105.311 17 105.306 17C105.302 17 105.299 16.9977 105.299 16.993L103.276 13.948L104.235 13.738L106.391 16.986ZM110.887 16.167C111.06 16.167 111.207 16.1343 111.328 16.069C111.454 16.0037 111.55 15.908 111.615 15.782C111.68 15.656 111.713 15.5043 111.713 15.327C111.713 15.1543 111.68 15.005 111.615 14.879C111.55 14.753 111.454 14.6573 111.328 14.592C111.207 14.5267 111.06 14.494 110.887 14.494C110.719 14.494 110.572 14.529 110.446 14.599C110.325 14.6643 110.231 14.76 110.166 14.886C110.101 15.0073 110.068 15.1543 110.068 15.327C110.068 15.5043 110.101 15.656 110.166 15.782C110.231 15.908 110.325 16.0037 110.446 16.069C110.567 16.1343 110.714 16.167 110.887 16.167ZM110.887 17.077C110.57 17.077 110.276 17 110.005 16.846C109.734 16.6873 109.52 16.475 109.361 16.209C109.207 15.9383 109.13 15.6443 109.13 15.327C109.13 15.0143 109.209 14.7343 109.368 14.487C109.527 14.235 109.739 14.039 110.005 13.899C110.276 13.759 110.57 13.689 110.887 13.689C111.209 13.689 111.503 13.759 111.769 13.899C112.04 14.039 112.254 14.235 112.413 14.487C112.572 14.7343 112.651 15.0143 112.651 15.327C112.651 15.6443 112.572 15.9383 112.413 16.209C112.254 16.475 112.04 16.6873 111.769 16.846C111.498 17 111.204 17.077 110.887 17.077ZM109.13 15.327C109.13 15.145 109.153 14.9723 109.2 14.809C109.251 14.6457 109.314 14.501 109.389 14.375L110.894 11.82C110.894 11.8153 110.896 11.813 110.901 11.813C110.906 11.813 110.91 11.813 110.915 11.813H111.958C111.963 11.813 111.967 11.8153 111.972 11.82C111.977 11.82 111.977 11.8223 111.972 11.827L110.194 14.83C110.152 14.8953 110.119 14.97 110.096 15.054C110.077 15.1333 110.068 15.2243 110.068 15.327H109.13ZM113.621 15.978C113.621 15.9733 113.621 15.971 113.621 15.971C113.626 15.9663 113.631 15.964 113.635 15.964H114.643C114.648 15.964 114.65 15.9663 114.65 15.971C114.655 15.971 114.657 15.9733 114.657 15.978V16.986C114.657 16.9907 114.655 16.9953 114.65 17C114.65 17 114.648 17 114.643 17H113.635C113.631 17 113.626 17 113.621 17C113.621 16.9953 113.621 16.9907 113.621 16.986V15.978ZM117.388 16.167C117.589 16.167 117.757 16.1063 117.892 15.985C118.027 15.859 118.13 15.6653 118.2 15.404C118.27 15.1427 118.305 14.8067 118.305 14.396C118.305 13.99 118.27 13.6587 118.2 13.402C118.13 13.1453 118.027 12.9563 117.892 12.835C117.757 12.709 117.589 12.646 117.388 12.646C117.187 12.646 117.019 12.709 116.884 12.835C116.749 12.9563 116.646 13.1453 116.576 13.402C116.511 13.6587 116.478 13.99 116.478 14.396C116.478 14.8067 116.511 15.1427 116.576 15.404C116.646 15.6653 116.749 15.859 116.884 15.985C117.019 16.1063 117.187 16.167 117.388 16.167ZM117.388 17.077C117.001 17.077 116.667 16.965 116.387 16.741C116.112 16.5123 115.902 16.1973 115.757 15.796C115.612 15.39 115.54 14.9233 115.54 14.396C115.54 13.878 115.612 13.4183 115.757 13.017C115.902 12.6157 116.112 12.303 116.387 12.079C116.667 11.8503 117.001 11.736 117.388 11.736C117.775 11.736 118.107 11.8503 118.382 12.079C118.662 12.303 118.874 12.6157 119.019 13.017C119.168 13.4183 119.243 13.878 119.243 14.396C119.243 14.9233 119.168 15.39 119.019 15.796C118.874 16.1973 118.662 16.5123 118.382 16.741C118.107 16.965 117.775 17.077 117.388 17.077ZM119.821 15.096C119.817 15.096 119.812 15.096 119.807 15.096C119.807 15.0913 119.807 15.0867 119.807 15.082V14.242C119.807 14.2373 119.807 14.235 119.807 14.235C119.812 14.2303 119.817 14.228 119.821 14.228H123.195C123.2 14.228 123.202 14.2303 123.202 14.235C123.207 14.235 123.209 14.2373 123.209 14.242V15.082C123.209 15.0867 123.207 15.0913 123.202 15.096C123.202 15.096 123.2 15.096 123.195 15.096H119.821ZM121.956 16.349C121.956 16.3537 121.954 16.3583 121.949 16.363C121.949 16.363 121.947 16.363 121.942 16.363H121.074C121.07 16.363 121.065 16.363 121.06 16.363C121.06 16.3583 121.06 16.3537 121.06 16.349V12.975C121.06 12.9703 121.06 12.968 121.06 12.968C121.065 12.9633 121.07 12.961 121.074 12.961H121.942C121.947 12.961 121.949 12.9633 121.949 12.968C121.954 12.968 121.956 12.9703 121.956 12.975V16.349Z" fill="#F5F5F7"/>
</svg>
