<svg width="20" height="20" viewBox="0 0 20 20" fill="none" xmlns="http://www.w3.org/2000/svg">
<rect x="5" y="5" width="10" height="10" rx="5" fill="#D5A11E"/>
<rect x="9" y="1" width="2" height="2" rx="1" fill="#D5A11E"/>
<rect x="9" y="17" width="2" height="2" rx="1" fill="#D5A11E"/>
<rect x="15.6562" y="2.92969" width="2" height="2" rx="1" transform="rotate(45 15.6562 2.92969)" fill="#D5A11E"/>
<rect x="4.34375" y="14.2422" width="2" height="2" rx="1" transform="rotate(45 4.34375 14.2422)" fill="#D5A11E"/>
<rect x="19" y="9" width="2" height="2" rx="1" transform="rotate(90 19 9)" fill="#D5A11E"/>
<rect x="3" y="9" width="2" height="2" rx="1" transform="rotate(90 3 9)" fill="#D5A11E"/>
<rect x="17.0713" y="15.6562" width="2" height="2" rx="1" transform="rotate(135 17.0713 15.6562)" fill="#D5A11E"/>
<rect x="5.75781" y="4.34375" width="2" height="2" rx="1" transform="rotate(135 5.75781 4.34375)" fill="#D5A11E"/>
</svg>