  <svg
    xmlns="http://www.w3.org/2000/svg"
    width="20"
    height="20"
    viewBox="0 0 20 20"
    fill="none"
  >
    <path
      fill-rule="evenodd"
      clip-rule="evenodd"
      d="M2.25 3.75C1.83579 3.75 1.5 4.08579 1.5 4.5C1.5 4.91421 1.83579 5.25 2.25 5.25H17.75C18.1642 5.25 18.5 4.91421 18.5 4.5C18.5 4.08579 18.1642 3.75 17.75 3.75H2.25ZM1.5 10C1.5 9.58579 1.83579 9.25 2.25 9.25H17.75C18.1642 9.25 18.5 9.58579 18.5 10C18.5 10.4142 18.1642 10.75 17.75 10.75H2.25C1.83579 10.75 1.5 10.4142 1.5 10ZM1.5 15.5C1.5 15.0858 1.83579 14.75 2.25 14.75H17.75C18.1642 14.75 18.5 15.0858 18.5 15.5C18.5 15.9142 18.1642 16.25 17.75 16.25H2.25C1.83579 16.25 1.5 15.9142 1.5 15.5Z"
      fill="#F5F5F7"
    />
  </svg>
