<svg xmlns="http://www.w3.org/2000/svg" width="52" height="52" viewBox="0 0 52 52" fill="none">
  <circle cx="26" cy="26" r="26" fill="currentColor"/>
  <g filter="url(#filter0_d_5125_44351)">
    <path d="M38 25.5C38 22.234 38 20.601 37.3812 19.3463C36.7971 18.1617 35.8383 17.2029 34.6537 16.6188C33.399 16 31.766 16 28.5 16H23.6C20.2397 16 18.5595 16 17.2761 16.654C16.1471 17.2292 15.2292 18.1471 14.654 19.2761C14 20.5595 14 22.2397 14 25.6V31.5V36.6788C14 37.2668 14 37.5608 14.0541 37.7186C14.2563 38.3076 14.9417 38.5706 15.4859 38.268C15.6317 38.187 15.8284 37.9684 16.2218 37.5314C16.7029 36.9968 16.9435 36.7295 17.2024 36.501C18.1213 35.6902 19.2664 35.1802 20.4837 35.0396C20.8268 35 21.1864 35 21.9056 35H28.5C31.766 35 33.399 35 34.6537 34.3812C35.8383 33.7971 36.7971 32.8383 37.3812 31.6537C38 30.399 38 28.766 38 25.5Z" fill="#DCE6FA"/>
  </g>
  <path d="M20.5977 23C20.5977 22.4477 21.0454 22 21.5977 22H30.5977C31.1499 22 31.5977 22.4477 31.5977 23C31.5977 23.5523 31.1499 24 30.5977 24H21.5977C21.0454 24 20.5977 23.5523 20.5977 23Z" fill="currentColor"/>
  <path d="M20.5977 28C20.5977 27.4477 21.0454 27 21.5977 27H30.5977C31.1499 27 31.5977 27.4477 31.5977 28C31.5977 28.5523 31.1499 29 30.5977 29H21.5977C21.0454 29 20.5977 28.5523 20.5977 28Z" fill="currentColor"/>
  <defs>
    <filter id="filter0_d_5125_44351" x="10" y="12" width="32" height="30.3945" filterUnits="userSpaceOnUse" color-interpolation-filters="sRGB">
      <feFlood flood-opacity="0" result="BackgroundImageFix"/>
      <feColorMatrix in="SourceAlpha" type="matrix" values="0 0 0 0 0 0 0 0 0 0 0 0 0 0 0 0 0 0 127 0" result="hardAlpha"/>
      <feOffset/>
      <feGaussianBlur stdDeviation="2"/>
      <feComposite in2="hardAlpha" operator="out"/>
      <feColorMatrix type="matrix" values="0 0 0 0 0 0 0 0 0 0 0 0 0 0 0 0 0 0 0.15 0"/>
      <feBlend mode="normal" in2="BackgroundImageFix" result="effect1_dropShadow_5125_44351"/>
      <feBlend mode="normal" in="SourceGraphic" in2="effect1_dropShadow_5125_44351" result="shape"/>
    </filter>
  </defs>
</svg>