<svg
    width="80"
    height="80"
    viewBox="0 0 80 80"
    fill="none"
    xmlns="http://www.w3.org/2000/svg"
  >
    <rect width="80" height="80" rx="16" fill="#DCE6FA" />
    <rect
      x="26"
      y="20"
      width="28"
      height="40"
      rx="5.12"
      fill="#5974DD"
      stroke="#3652D9"
      stroke-width="1.28"
    />
    <path
      fill-rule="evenodd"
      clip-rule="evenodd"
      d="M38.8848 27.5H35.0879V33.1463L36.6067 32.8176V29.0264H38.1254V30.3935H39.6442V27.5H38.8848ZM36.6383 33.8561C36.8714 35.6106 38.3664 36.9638 40.1758 36.9638C42.147 36.9638 43.7449 35.3578 43.7449 33.3767V32.3183L45.2637 31.9896V33.3767C45.2637 36.2008 42.9857 38.4902 40.1758 38.4902C37.6371 38.4902 35.5327 36.6216 35.15 34.1782L36.6383 33.8561ZM45.2637 30.9443L43.7449 31.2729V29.0264H42.2261V30.3935H40.7074V27.5H41.4667H45.2637V30.9443Z"
      fill="#DCE6FA"
    />
  </svg>