<svg
    xmlns="http://www.w3.org/2000/svg"
    width="80"
    height="81"
    viewBox="0 0 80 81"
    fill="none"
  >
    <rect y="0.998047" width="80" height="80" rx="16" fill="#DCE6FA" />
    <path
      d="M21.334 35.5561C21.334 34.1422 22.4801 32.9961 23.894 32.9961H56.1073C57.5212 32.9961 58.6673 34.1422 58.6673 35.5561V55.8761C58.6673 58.7038 56.375 60.9961 53.5473 60.9961H26.454C23.6263 60.9961 21.334 58.7038 21.334 55.8761V35.5561Z"
      fill="#243176"
    />
    <rect x="24" y="20.9961" width="32" height="40" rx="5.12" fill="#3652D9" />
    <path
      d="M21.334 36.6047C21.334 35.6067 22.4253 34.9926 23.2783 35.5105L38.0078 44.4534C39.2323 45.1969 40.769 45.1969 41.9935 44.4535L56.723 35.5105C57.576 34.9926 58.6673 35.6067 58.6673 36.6047V55.8767C58.6673 58.7044 56.375 60.9967 53.5473 60.9967H26.454C23.6263 60.9967 21.334 58.7044 21.334 55.8767V36.6047Z"
      fill="#5974DD"
    />
    <rect x="30.001" y="27.6641" width="20" height="2" rx="1" fill="#DCE6FA" />
    <rect x="30.001" y="32.9961" width="10" height="2" rx="1" fill="#DCE6FA" />
  </svg>