<svg width="30" height="25" viewBox="0 0 30 25" fill="none" xmlns="http://www.w3.org/2000/svg">
<path d="M26.4674 7.22603C26.4674 6.9559 26.4622 6.68881 26.4503 6.42356C27.6051 5.56314 28.6071 4.48607 29.3996 3.25357C28.3234 3.73778 27.1782 4.05106 26.0054 4.18211C27.226 3.431 28.1622 2.22973 28.6045 0.788158C27.4616 1.48126 26.1973 1.97677 24.8531 2.23497C23.776 1.00952 22.239 0.229001 20.5399 0.199997C17.2766 0.146052 14.6312 2.90348 14.6312 6.35808C14.6312 6.84912 14.6826 7.32533 14.7845 7.78518C9.87042 7.46898 5.51589 4.91133 2.60306 1.05565C2.09481 1.97941 1.80322 3.05902 1.80322 4.21599C1.80322 6.40426 2.8464 8.34917 4.43141 9.49684C3.46108 9.45295 2.55211 9.1591 1.75485 8.6773V8.75766C1.75485 11.8161 3.79224 14.3785 6.49562 14.9764C6.00002 15.1174 5.47728 15.1907 4.93967 15.1881C4.56613 15.1861 4.19381 15.1454 3.82872 15.0664C4.5799 17.5727 6.76308 19.4038 9.34774 19.4648C7.32488 21.1419 4.7767 22.1437 2.01013 22.1367C1.53311 22.1367 1.06174 22.1047 0.599609 22.0467C3.21556 23.8409 6.32077 24.8859 9.65884 24.8859C20.525 24.8885 26.4674 15.4314 26.4674 7.22603Z" fill="#8C8F9A"/>
</svg>