<svg xmlns="http://www.w3.org/2000/svg" width="32" height="32" viewBox="0 0 32 32" fill="none">
  <rect width="32" height="32" rx="16" fill="#3754E5"/>
  <path fill-rule="evenodd" clip-rule="evenodd" d="M10.6023 15.5996V21.9996C10.6023 22.1101 10.6919 22.1996 10.8023 22.1996H21.2023C21.3128 22.1996 21.4023 22.1101 21.4023 21.9996V15.5996H22.6023V21.9996C22.6023 22.7728 21.9755 23.3996 21.2023 23.3996H10.8023C10.0291 23.3996 9.40234 22.7728 9.40234 21.9996V15.5996H10.6023Z" fill="#F0F5FF"/>
  <path fill-rule="evenodd" clip-rule="evenodd" d="M9.48789 9.5521C9.67992 8.98288 10.2137 8.59961 10.8144 8.59961H21.1794C21.7801 8.59961 22.3139 8.98287 22.5059 9.5521L23.7449 13.2248C24.2378 14.686 23.151 16.1996 21.6089 16.1996C20.9067 16.1996 20.2795 15.8785 19.866 15.3752C19.3951 15.8823 18.7225 16.1996 17.9758 16.1996C17.1809 16.1996 16.47 15.84 15.9969 15.2746C15.5238 15.84 14.8129 16.1996 14.018 16.1996C13.2713 16.1996 12.5987 15.8823 12.1278 15.3752C11.7143 15.8785 11.0871 16.1996 10.3849 16.1996C8.84284 16.1996 7.75601 14.686 8.24893 13.2248L9.48789 9.5521ZM10.8144 9.79961C10.7286 9.79961 10.6524 9.85436 10.6249 9.93568L9.38598 13.6083C9.15545 14.2917 9.66373 14.9996 10.3849 14.9996C10.9672 14.9996 11.4392 14.5276 11.4392 13.9453V13.6568C11.4392 13.3276 11.7046 13.0598 12.0338 13.0569C12.3631 13.0539 12.6332 13.3168 12.6391 13.646C12.6526 14.3958 13.2648 14.9996 14.018 14.9996C14.7736 14.9996 15.3874 14.3918 15.397 13.6386C15.4011 13.3102 15.6685 13.0462 15.9969 13.0462C16.3253 13.0462 16.5927 13.3102 16.5969 13.6386C16.6064 14.3918 17.2202 14.9996 17.9758 14.9996C18.729 14.9996 19.3412 14.3958 19.3547 13.646C19.3606 13.3168 19.6308 13.0539 19.96 13.0569C20.2893 13.0598 20.5546 13.3276 20.5546 13.6568V13.9453C20.5546 14.5276 21.0266 14.9996 21.6089 14.9996C22.3301 14.9996 22.8384 14.2917 22.6078 13.6083L21.3689 9.93568C21.3415 9.85436 21.2652 9.79961 21.1794 9.79961H10.8144Z" fill="#F0F5FF"/>
</svg>