<svg width="82" height="26" viewBox="0 0 82 26" fill="none" xmlns="http://www.w3.org/2000/svg">
<path d="M0.65 0.742C0.65 0.727333 0.65 0.72 0.65 0.72C0.664667 0.705332 0.679333 0.697999 0.694 0.697999H3.554C3.56867 0.697999 3.576 0.705332 3.576 0.72C3.59067 0.72 3.598 0.727333 3.598 0.742V10.73C3.598 11.4927 3.73 12.1453 3.994 12.688C4.27267 13.2307 4.654 13.6487 5.138 13.942C5.63667 14.2353 6.20867 14.382 6.854 14.382C7.49933 14.382 8.07133 14.2427 8.57 13.964C9.06867 13.6707 9.45 13.2527 9.714 12.71C9.99267 12.1527 10.132 11.4927 10.132 10.73V0.742C10.132 0.727333 10.132 0.72 10.132 0.72C10.1467 0.705332 10.1613 0.697999 10.176 0.697999H13.036C13.0507 0.697999 13.058 0.705332 13.058 0.72C13.0727 0.72 13.08 0.727333 13.08 0.742V10.73C13.08 11.918 12.794 13.0107 12.222 14.008C11.6647 15.0053 10.9093 15.7973 9.956 16.384C9.00267 16.956 7.96867 17.242 6.854 17.242C5.73933 17.242 4.70533 16.956 3.752 16.384C2.79867 15.7973 2.04333 15.0053 1.486 14.008C0.928667 13.0107 0.65 11.918 0.65 10.73V0.742ZM18.8626 16.956C18.8626 16.9707 18.8552 16.9853 18.8406 17C18.8406 17 18.8332 17 18.8186 17H16.0906C16.0759 17 16.0612 17 16.0466 17C16.0466 16.9853 16.0466 16.9707 16.0466 16.956V5.384C16.0466 5.36933 16.0466 5.362 16.0466 5.362C16.0612 5.34733 16.0759 5.34 16.0906 5.34H18.8186C18.8332 5.34 18.8406 5.34733 18.8406 5.362C18.8552 5.362 18.8626 5.36933 18.8626 5.384V16.956ZM16.0466 13.392C16.0466 11.9253 16.3179 10.554 16.8606 9.278C17.4032 8.002 18.1512 6.99 19.1046 6.242C20.0579 5.47933 21.1212 5.098 22.2946 5.098C23.0426 5.098 23.7392 5.31067 24.3846 5.736C25.0446 6.16133 25.5726 6.78467 25.9686 7.606C26.3792 8.41267 26.5846 9.35867 26.5846 10.444V16.956C26.5846 16.9707 26.5772 16.9853 26.5626 17C26.5626 17 26.5552 17 26.5406 17H23.8126C23.7979 17 23.7832 17 23.7686 17C23.7686 16.9853 23.7686 16.9707 23.7686 16.956V10.444C23.7686 9.84267 23.6586 9.35133 23.4386 8.97C23.2186 8.574 22.9399 8.288 22.6026 8.112C22.2652 7.92133 21.9132 7.826 21.5466 7.826C21.0186 7.826 20.5566 7.936 20.1606 8.156C19.7646 8.376 19.4492 8.75 19.2146 9.278C18.9799 9.806 18.8626 10.5173 18.8626 11.412L16.0466 13.392ZM32.0325 16.956C32.0325 16.9707 32.0252 16.9853 32.0105 17C32.0105 17 32.0032 17 31.9885 17H29.2605C29.2458 17 29.2312 17 29.2165 17C29.2165 16.9853 29.2165 16.9707 29.2165 16.956V5.384C29.2165 5.36933 29.2165 5.362 29.2165 5.362C29.2312 5.34733 29.2458 5.34 29.2605 5.34H31.9885C32.0032 5.34 32.0105 5.34733 32.0105 5.362C32.0252 5.362 32.0325 5.36933 32.0325 5.384V16.956ZM29.2165 13.392C29.2165 11.9253 29.4878 10.554 30.0305 9.278C30.5732 8.002 31.3212 6.99 32.2745 6.242C33.2278 5.47933 34.2912 5.098 35.4645 5.098C36.2125 5.098 36.9092 5.31067 37.5545 5.736C38.2145 6.16133 38.7425 6.78467 39.1385 7.606C39.5492 8.41267 39.7545 9.35867 39.7545 10.444V16.956C39.7545 16.9707 39.7472 16.9853 39.7325 17C39.7325 17 39.7252 17 39.7105 17H36.9825C36.9678 17 36.9532 17 36.9385 17C36.9385 16.9853 36.9385 16.9707 36.9385 16.956V10.444C36.9385 9.84267 36.8285 9.35133 36.6085 8.97C36.3885 8.574 36.1098 8.288 35.7725 8.112C35.4352 7.92133 35.0832 7.826 34.7165 7.826C34.1885 7.826 33.7265 7.936 33.3305 8.156C32.9345 8.376 32.6192 8.75 32.3845 9.278C32.1498 9.806 32.0325 10.5173 32.0325 11.412L29.2165 13.392ZM45.6644 16.956C45.6644 16.9707 45.6571 16.9853 45.6424 17C45.6424 17 45.6351 17 45.6204 17H42.7604C42.7457 17 42.7311 17 42.7164 17C42.7164 16.9853 42.7164 16.9707 42.7164 16.956V0.742C42.7164 0.727333 42.7164 0.72 42.7164 0.72C42.7311 0.705332 42.7457 0.697999 42.7604 0.697999H45.6644V16.956ZM44.2124 7.782H48.1724C48.6711 7.782 49.0964 7.68667 49.4484 7.496C49.8004 7.30533 50.0644 7.04867 50.2404 6.726C50.4164 6.40333 50.5044 6.044 50.5044 5.648C50.5044 5.252 50.4164 4.9 50.2404 4.592C50.0644 4.26933 49.8004 4.02 49.4484 3.844C49.0964 3.65333 48.6711 3.558 48.1724 3.558H44.6964V0.697999H48.1724C49.1697 0.697999 50.0717 0.939999 50.8784 1.424C51.6851 1.89333 52.3157 2.50933 52.7704 3.272C53.2251 4.03467 53.4524 4.82667 53.4524 5.648C53.4524 6.45467 53.2251 7.24667 52.7704 8.024C52.3157 8.78667 51.6851 9.41733 50.8784 9.916C50.0717 10.4 49.1697 10.642 48.1724 10.642H44.2124V7.782ZM66.6803 16.956C66.6803 16.9707 66.6729 16.9853 66.6583 17C66.6583 17 66.6509 17 66.6363 17H63.8423C63.8276 17 63.8129 17 63.7983 17C63.7983 16.9853 63.7983 16.9707 63.7983 16.956V13.238L64.4143 11.258L63.7983 9.168V5.384C63.7983 5.36933 63.7983 5.362 63.7983 5.362C63.8129 5.34733 63.8276 5.34 63.8423 5.34H66.6363C66.6509 5.34 66.6583 5.34733 66.6583 5.362C66.6729 5.362 66.6803 5.36933 66.6803 5.384V16.956ZM60.6303 14.712C61.3196 14.712 61.9209 14.5653 62.4343 14.272C62.9476 13.9787 63.3436 13.568 63.6223 13.04C63.9009 12.4973 64.0403 11.874 64.0403 11.17C64.0403 10.466 63.9009 9.84267 63.6223 9.3C63.3436 8.75733 62.9476 8.33933 62.4343 8.046C61.9209 7.75267 61.3196 7.606 60.6303 7.606C60.0876 7.606 59.5816 7.76 59.1123 8.068C58.6576 8.36133 58.2983 8.77933 58.0343 9.322C57.7703 9.86467 57.6383 10.4807 57.6383 11.17C57.6383 11.8593 57.7703 12.4753 58.0343 13.018C58.2983 13.546 58.6576 13.964 59.1123 14.272C59.5669 14.5653 60.0729 14.712 60.6303 14.712ZM60.4103 17.242C59.3103 17.242 58.3203 16.9707 57.4403 16.428C56.5603 15.8853 55.8709 15.152 55.3723 14.228C54.8736 13.2893 54.6243 12.27 54.6243 11.17C54.6243 10.07 54.8736 9.058 55.3723 8.134C55.8709 7.19533 56.5603 6.45467 57.4403 5.912C58.3203 5.36933 59.3103 5.098 60.4103 5.098C61.4956 5.098 62.4196 5.41333 63.1823 6.044C63.9596 6.66 64.5389 7.43733 64.9203 8.376C65.3016 9.31467 65.4923 10.246 65.4923 11.17C65.4923 12.094 65.3016 13.0253 64.9203 13.964C64.5389 14.9027 63.9596 15.6873 63.1823 16.318C62.4196 16.934 61.4956 17.242 60.4103 17.242ZM72.9578 16.78L68.0738 5.384C68.0738 5.36933 68.0738 5.362 68.0738 5.362C68.0885 5.34733 68.1031 5.34 68.1178 5.34H71.0658C71.1098 5.34 71.1318 5.35467 71.1318 5.384L75.5538 16.384L72.9578 16.78ZM73.3098 21.972C73.3098 21.9867 73.3025 21.994 73.2878 21.994C73.2731 22.0087 73.2585 22.016 73.2438 22.016H70.2958C70.2811 22.016 70.2665 22.0087 70.2518 21.994C70.2518 21.994 70.2518 21.9867 70.2518 21.972L77.3358 5.384C77.3358 5.35467 77.3578 5.34 77.4018 5.34H80.3498C80.3645 5.34 80.3718 5.34733 80.3718 5.362C80.3865 5.362 80.3938 5.36933 80.3938 5.384L73.3098 21.972Z" fill="currentColor"/>
</svg>
